<?xml version="1.0" encoding="utf-8"?>
<!-- Generator: Adobe Illustrator 26.0.3, SVG Export Plug-In . SVG Version: 6.00 Build 0)  -->
<svg version="1.1" xmlns="http://www.w3.org/2000/svg" xmlns:xlink="http://www.w3.org/1999/xlink" x="0px" y="0px"
	 viewBox="0 0 612 792" enable-background="new 0 0 612 792" xml:space="preserve">
<g id="Layer_2" display="none">
	<rect x="4.27" y="5.31" display="inline" fill="#17150B" width="602.6" height="376.51"/>
</g>
<g id="Layer_1">
	<g>
		<path fill="none" stroke="#945A24" stroke-miterlimit="10" d="M220.26,279.39c1.3-4.03,2.85-7.99,4.65-11.84"/>
		<path fill="none" stroke="#945A24" stroke-miterlimit="10" d="M236.27,267.98c5.23,3.17,10.29,6.62,15.13,10.32"/>
		<path fill="none" stroke="#945A24" stroke-miterlimit="10" d="M232.36,271.21c-0.48-0.14-1.03,0.02-1.35,0.38
			c-0.16,0.19-0.26,0.42-0.31,0.65c-0.16,0.84,0.51,1.76,1.4,1.87c0.89,0.11,1.79-0.66,1.75-1.52S232.78,271.06,232.36,271.21z"/>
		<path fill="none" stroke="#945A24" stroke-miterlimit="10" d="M232,271.13c2.42-3.52,4.1-7.5,4.94-11.63"/>
		<path fill="none" stroke="#945A24" stroke-miterlimit="10" d="M233.36,272.15c2.92-4.53,4.85-9.64,5.63-14.91"/>
		<path fill="none" stroke="#945A24" stroke-miterlimit="10" d="M236.79,260.42c0.72-3.67,1.32-7.38,1.25-11.12
			s-0.85-7.51-2.72-10.78"/>
		<path fill="none" stroke="#945A24" stroke-miterlimit="10" d="M238.82,257.86c2.09-7.88,0.65-16.55-3.88-23.42"/>
		<path fill="none" stroke="#945A24" stroke-miterlimit="10" d="M208.14,264.04c0.18-6.19,0.41-12.56,3.01-18.22
			c0.81-1.77,1.84-3.43,2.93-5.06c1.77-2.64,3.89-5.33,6.96-6.42c0.05-0.09,0.1-0.18,0.15-0.27"/>
		<path fill="none" stroke="#945A24" stroke-miterlimit="10" d="M220.96,234.45c2.4-1.66,5.69-1.97,8.47-0.99
			c2.78,0.98,5.02,3.17,6.21,5.77"/>
		<path fill="none" stroke="#945A24" stroke-miterlimit="10" d="M235.14,235.03c-1.69-1.9-4.02-3.25-6.55-3.81
			c-2.53-0.56-5.25-0.31-7.63,0.69c0,0,0.06-0.08,0.09-0.1c-3.33,2.32-6.73,4.72-9.01,8.01c-1.27,1.84-2.14,3.9-2.88,5.99
			c-2.11,5.96-3.2,12.33-2.41,18.58"/>
		<path fill="none" stroke="#945A24" stroke-miterlimit="10" d="M250.93,278.07c-10.16-0.24-20.34,0.01-30.47,0.74"/>
		<path fill="none" stroke="#945A24" stroke-miterlimit="10" d="M188.26,268.97c10.91,2.66,21.62,6.07,32.02,10.18"/>
		<path fill="none" stroke="#945A24" stroke-miterlimit="10" d="M210.24,263.64c-7.52,1.4-14.97,3.16-22.3,5.28"/>
		<path fill="none" stroke="#945A24" stroke-miterlimit="10" d="M209.19,263.58c4.92,1.71,9.97,3.08,14.91,4.45
			c3.14-0.61,6.3-1.06,9.49-1.35"/>
		<path fill="none" stroke="#945A24" stroke-miterlimit="10" d="M233.41,266.94c0.18-1.42,0.28-2.86-0.23-4.46
			c-7.32-1-14.63-2-22.41-2.68c0.06,1.39-0.15,2.79-0.62,4.1"/>
		<path fill="none" stroke="#945A24" stroke-miterlimit="10" d="M245.78,278.75c-3.3,14.07-6.04,28.26-8.08,42.55
			c0.01,0.03,0.03,0.05,0.04,0.08"/>
		<path fill="none" stroke="#945A24" stroke-miterlimit="10" d="M224.14,279.2c-3.11,15.25-5.83,30.56-8.09,45.94
			c0.01-0.02,0.01-0.04,0.02-0.06"/>
		<path fill="none" stroke="#945A24" stroke-miterlimit="10" d="M216.08,325.37c7.06-1.72,14.21-3.06,21.42-4.03"/>
		<path fill="none" stroke="#945A24" stroke-miterlimit="10" d="M220.19,318.68c4.68-0.55,9.37-1.11,14.05-1.66"/>
		<path fill="none" stroke="#945A24" stroke-miterlimit="10" d="M220.45,318.69c2.29-11.72,4.3-23.49,6.03-35.29
			c4.74-0.79,9.63-1.13,14.27-1.07c-0.97,11.87-5.27,23.3-6.4,35.16"/>
		<path fill="none" stroke="#945A24" stroke-miterlimit="10" d="M221.81,312.61c1.11-0.81,2.21-1.62,3.17-2.3
			c0.06,2.63-0.12,5.27-0.54,7.87"/>
		<path fill="none" stroke="#945A24" stroke-miterlimit="10" d="M224.76,309.8c-0.92,0.01-1.84-0.06-2.74-0.21"/>
		<path fill="none" stroke="#945A24" stroke-miterlimit="10" d="M209.58,307.7c-2.8,0.12-5.62-0.12-8.35-0.73"/>
		<path fill="none" stroke="#945A24" stroke-miterlimit="10" d="M209.21,311.3c-2.58-1.69-5.32-3.15-8.21-4.35
			c-0.89,2.63-1.78,5.25-2.67,7.88"/>
		<path fill="none" stroke="#945A24" stroke-miterlimit="10" d="M220.25,279.35c-2.97,15.05-5.93,30.1-8.9,45.14"/>
		<path fill="none" stroke="#945A24" stroke-miterlimit="10" d="M221.72,279.08c-0.39,3.57-1.07,7.11-1.75,10.64
			c-2.29,11.89-4.59,23.78-6.88,35.68"/>
		<path fill="none" stroke="#945A24" stroke-miterlimit="10" d="M217.68,325.04c-1.39,0.29-2.81,0.45-4.24,0.49
			c-9.56-2.93-18.71-5.92-28.28-9.12c0.45-1.39,0.79-2.82,1.02-4.26c0.01-0.02,0.01-0.04,0.02-0.06"/>
		<path fill="none" stroke="#945A24" stroke-miterlimit="10" d="M196.65,276.03c6.39,1.31,12.7,2.97,18.9,4.97"/>
		<path fill="none" stroke="#945A24" stroke-miterlimit="10" d="M207.8,317.97c2.67-12.28,5.34-24.57,8.01-36.85"/>
		<path fill="none" stroke="#945A24" stroke-miterlimit="10" d="M208.15,317.8c-5.92-1.73-11.84-3.47-17.57-4.76
			c2.01-12.42,4.02-24.84,6.04-37.26"/>
		<path fill="none" stroke="#945A24" stroke-miterlimit="10" d="M196.34,275.69c-6.63-1.17-13.26-2.35-20.27-3.29
			c-1.95,12.78-3.76,25.59-5.67,38.65c7.02,0.09,14.03,0.47,21.01,1.14"/>
		<path fill="none" stroke="#945A24" stroke-miterlimit="10" d="M193.2,277.65c-1.94,10.66-3.89,21.32-5.83,31.98"/>
		<path fill="none" stroke="#945A24" stroke-miterlimit="10" d="M193.25,277.4c-4.98-0.85-9.99-1.59-15.12-2.1
			c-2.01,10.88-3.5,21.84-4.48,32.84c4.73,0.39,9.46,0.77,14.19,1.16"/>
		<path fill="none" stroke="#945A24" stroke-miterlimit="10" d="M175.83,290.08c0.44,0.08,0.89,0.17,1.33,0.25
			c0.13,0.02,0.26,0.05,0.34,0.15c0.1,0.11,0.09,0.28,0.08,0.43c-0.3,2.96-0.61,5.96-1.62,8.78c-0.48-0.03-0.96-0.06-1.43-0.09"/>
		<path fill="none" stroke="#945A24" stroke-miterlimit="10" d="M175.51,292.31c0.4,0.1,0.76,0.35,0.98,0.69
			c-0.35,1.4-0.61,2.82-0.77,4.25c-0.31,0.01-0.62,0.03-0.94,0.04"/>
		<path fill="none" stroke="#945A24" stroke-miterlimit="10" d="M194.63,271.47c-0.31,1.52-0.63,3.04-0.94,4.56"/>
	</g>
	<g>
		<path fill="none" stroke="#945A24" stroke-miterlimit="10" d="M156.47,213.1c0.2,8.58,0.39,17.16,0.59,25.74
			c5.17,1.06,9.92,5.3,11.9,10.63c1.98,5.32,1.2,11.56-1.9,16.32c-0.64,0.99-1.38,1.91-2.27,2.69c-1.25,1.09-2.76,1.84-4.31,2.44
			c-3.26,1.27-6.84,1.94-10.28,1.29c-2.38-0.45-4.63-1.54-6.58-2.98c-5.18-3.83-8.28-10.47-7.44-16.86s5.79-12.15,11.77-13.11
			c0.04-8.44,0.08-16.88,0.12-25.32"/>
		<path fill="none" stroke="#945A24" stroke-miterlimit="10" d="M148.43,206.8c-1.25,0.3-2.46,0.76-3.58,1.38
			c-1.02,0.56-2.1,1.52-1.9,2.66c0.21,1.17,1.58,1.69,2.75,1.91c3.18,0.59,6.45,0.58,9.68,0.45c2.05-0.08,4.39-0.37,5.54-2.07
			c0.61-0.9,0.69-2.26-0.11-2.99c-0.28-0.25-0.63-0.41-0.98-0.54c-1.14-0.44-2.33-0.73-3.53-0.87"/>
		<path fill="none" stroke="#945A24" stroke-miterlimit="10" d="M154.25,210.51c1.36-3.14,2.73-6.28,4.09-9.42"/>
		<path fill="none" stroke="#945A24" stroke-miterlimit="10" d="M158.69,201.19c-1.45-4.19-3.51-8.16-6.18-11.57
			c-2.81,3.86-5.03,8.15-6.46,12.47c1.03,2.77,2.24,5.47,3.63,8.08"/>
		<path fill="none" stroke="#945A24" stroke-miterlimit="10" d="M154.39,210.26c-1.77,0.06-3.53,0.13-5.3,0.19"/>
		<path fill="none" stroke="#945A24" stroke-miterlimit="10" d="M152.42,189.77c0.03,3.75,0.07,7.5,0.24,10.52
			c-1.06,1.04-2.03,2.18-2.82,3.29c-1.34-0.23-2.64-0.7-3.82-1.38"/>
		<path fill="none" stroke="#945A24" stroke-miterlimit="10" d="M152.82,200.77c0.66,1.07,1.44,2.08,2.38,3.12
			c1.31-0.97,2.56-2,3.76-3.1"/>
		<path fill="none" stroke="#945A24" stroke-miterlimit="10" d="M155.38,203.75c-1.11,2.19-2.13,4.43-3.05,6.71"/>
		<path fill="none" stroke="#945A24" stroke-miterlimit="10" d="M149.84,203.92c0.82,2.3,1.52,4.65,2.08,7.03L149.84,203.92z"/>
		<path fill="none" stroke="#945A24" stroke-miterlimit="10" d="M168.32,250.21c-1.03-0.48-2.32,0.06-3.02,0.96
			c-0.7,0.9-0.96,2.06-1.16,3.19c-0.46,2.49-0.79,5.06-2,7.28c-1.21,2.22-3.55,4.05-6.06,3.79c-3.01-0.3-4.98-3.31-5.95-6.17
			c-0.97-2.86-1.48-6.04-3.49-8.29"/>
		<path fill="none" stroke="#945A24" stroke-miterlimit="10" d="M163.86,255.34c-1.48,1.32-3.76,1.43-5.59,0.67
			c-1.82-0.77-3.24-2.28-4.34-3.93c-1.1-1.65-1.93-3.45-2.96-5.15c-0.86-1.42-1.89-2.79-3.31-3.65c-1.42-0.86-3.28-1.13-4.73-0.32
			c-0.71,0.4-1.32,1.12-1.3,1.93c0.02,0.83,0.65,1.5,1.25,2.08c1.56,1.53,3.11,3.05,4.67,4.58"/>
		<path fill="none" stroke="#945A24" stroke-miterlimit="10" d="M160.99,247.88c-0.38-0.61-0.79-1.24-1.44-1.55
			c-0.65-0.31-1.59-0.11-1.81,0.57c-0.18,0.55,0.17,1.14,0.58,1.56c0.43,0.44,0.93,0.82,1.29,1.32s0.53,1.2,0.23,1.73
			C161.04,250.49,161.36,248.47,160.99,247.88z"/>
		<path fill="none" stroke="#945A24" stroke-miterlimit="10" d="M143.85,249.9c-0.22,0.45-0.83,0.76-0.74,1.25
			c0.07,0.41,0.58,0.55,1,0.55c0.16,0,0.32-0.02,0.46-0.08c0.42-0.2,0.47-0.85,0.16-1.2C144.43,250.06,143.89,249.99,143.85,249.9z"
			/>
		<path fill="none" stroke="#945A24" stroke-miterlimit="10" d="M147.02,266.21c-0.27-0.1-0.55-0.21-0.84-0.22s-0.6,0.08-0.79,0.31
			c-0.2,0.24-0.2,0.59-0.18,0.9c0.05,0.52,0.18,1.05,0.47,1.49c0.29,0.44,0.77,0.77,1.29,0.82c0.52,0.04,1.08-0.25,1.27-0.75
			c0.1-0.27,0.09-0.56,0.03-0.84C148.08,267.07,147.43,266.37,147.02,266.21z"/>
		<path fill="none" stroke="#945A24" stroke-miterlimit="10" d="M149.55,262.92c-0.25,0-0.5,0.01-0.74,0.09
			c-0.23,0.08-0.45,0.27-0.51,0.51c-0.1,0.44,0.32,0.82,0.73,1c0.22,0.1,0.46,0.18,0.69,0.12c0.4-0.1,0.58-0.61,0.45-1
			C150.05,263.26,149.71,262.98,149.55,262.92z"/>
		<path fill="none" stroke="#945A24" stroke-miterlimit="10" d="M148.52,256.89c-0.33,0.02-0.65,0.09-0.95,0.21
			c0.03,0.26,0.09,0.52,0.23,0.74s0.41,0.37,0.67,0.31c0.32-0.07,0.5-0.48,0.39-0.79C148.75,257.06,148.41,256.86,148.52,256.89z"/>
	</g>
	<g>
		<path fill="none" stroke="#945A24" stroke-miterlimit="10" d="M446.19,68.28c-9.97,13.83-20.17,27.53-30.42,40.99
			c-6.29,8.67-12.58,17.34-18.9,26.1c-6.12,8.24-12.1,16.57-17.42,24.07c-5.61,8.05-11.47,15.97-17.57,23.74"/>
		<path fill="none" stroke="#945A24" stroke-miterlimit="10" d="M356.19,179.17c2.1,1.2,4.07,2.58,5.89,4.11"/>
		<path fill="none" stroke="#945A24" stroke-miterlimit="10" d="M445.85,68.6c-1.87,0.14-3.7,0.62-5.17,1.8
			c-8.9,11.13-17.6,22.37-25.72,33.38c-7.32,9.88-15.01,19.53-22.86,29.2c-6.84,8.49-13.53,17.06-20.07,26
			c-5.66,6.51-10.94,13.27-15.81,20.27"/>
		<path fill="none" stroke="#945A24" stroke-miterlimit="10" d="M371.2,159.11c1.72,0.58,3.55,0.9,5.38,0.93
			c0.96,0.02,1.93-0.04,2.86-0.27c1.3-0.32,2.47-0.96,3.61-1.59c0.65-0.35,1.3-0.71,1.81-1.22c0.53-0.53,0.87-1.2,1.19-1.85
			c0.95-1.95,1.86-4.13,1.18-6.17"/>
		<path fill="none" stroke="#945A24" stroke-miterlimit="10" d="M385.24,141.33c-0.26-1.9-0.21-3.89,0.61-5.66
			c0.82-1.77,2.52-3.3,4.62-3.64c3.87-0.64,7.33,2.67,11.26,2.63c0.34,0,0.72-0.04,0.96-0.26c0.24-0.21,0.29-0.54,0.31-0.84
			c0.12-1.74-0.23-3.49-1.01-5.09"/>
		<path fill="none" stroke="#945A24" stroke-miterlimit="10" d="M401.08,121.63c0-1.49,0-2.99,0.33-4.44s1.01-2.89,2.2-3.93
			c1.19-1.04,2.93-1.63,4.55-1.31"/>
		<path fill="none" stroke="#945A24" stroke-miterlimit="10" d="M414.21,112.51c1.33-0.26,2.44-1.24,2.76-2.42
			c0.39-1.46-0.37-2.95-1.05-4.32c-0.63-1.29-1.2-2.62-1.35-4.02c-0.15-1.4,0.18-2.89,1.19-3.96c1.09-1.17,2.95-1.72,4.61-1.36"/>
		<path fill="none" stroke="#945A24" stroke-miterlimit="10" d="M425.03,97.68c1.36-0.53,2.92-1.27,3.12-2.59
			c0.13-0.86-0.37-1.67-0.8-2.45c-0.49-0.88-0.9-1.79-1.23-2.72c-0.38-1.09-0.65-2.27-0.28-3.36c0.52-1.52,2.37-2.57,4.12-2.34"/>
		<path fill="none" stroke="#945A24" stroke-miterlimit="10" d="M428.46,94.95c-0.16-1.67,1.4-3.33,3.27-3.46
			C431.83,93.36,430.26,95.19,428.46,94.95z"/>
		<path fill="none" stroke="#945A24" stroke-miterlimit="10" d="M428.25,95.53c-0.12,0.65,0.46,1.34,1.2,1.4
			c0.54,0.05,1.06-0.2,1.6-0.19"/>
		<path fill="none" stroke="#945A24" stroke-miterlimit="10" d="M431,96.78c-0.01-0.71-0.66-1.36-1.45-1.47
			c-0.31-0.06-0.62-0.12-0.93-0.18l0.19,0.09"/>
		<path fill="none" stroke="#945A24" stroke-miterlimit="10" d="M417.82,96.54c-0.62-0.48-0.84-1.28-0.77-2.01s0.41-1.42,0.58-1.9
			c0.24,0.44,0.53,0.86,0.74,1.31c0.21,0.45,0.34,0.95,0.25,1.43C418.52,95.85,418.18,96.29,417.82,96.54z"/>
		<path fill="none" stroke="#945A24" stroke-miterlimit="10" d="M417.07,95.85c-0.64-0.36-1.45-0.31-2.2-0.2
			C415.15,96.39,416.02,96.93,417.07,95.85z"/>
		<path fill="none" stroke="#945A24" stroke-miterlimit="10" d="M405.39,111.78c-0.31-0.14-0.63-0.28-0.85-0.52
			c-0.36-0.38-0.41-0.92-0.39-1.42c0.04-1.18,0.38-2.35,0.99-3.41c0.74,0.75,1.17,1.74,1.21,2.73S406.03,111.18,405.39,111.78z"/>
		<path fill="none" stroke="#945A24" stroke-miterlimit="10" d="M414.42,112.47c-0.25,0.06-0.5,0.11-0.75,0.17"/>
		<path fill="none" stroke="#945A24" stroke-miterlimit="10" d="M402.63,129.75c-0.2-0.45-0.11-0.97,0.13-1.4
			c0.24-0.43,0.63-0.78,1.05-1.09c0.82-0.6,1.77-1.04,2.79-1.31c0.57-0.15,1.18-0.24,1.67-0.55c-0.35,0.8-0.71,1.6-1.24,2.32
			c-0.53,0.72-1.23,1.36-2.11,1.7C404.19,129.71,403.37,129.79,402.63,129.75z"/>
		<path fill="none" stroke="#945A24" stroke-miterlimit="10" d="M387.29,133.24c0.56-0.47,0.84-1.16,0.91-1.84s-0.04-1.37-0.18-2.05
			c-0.09-0.42-0.18-0.84-0.39-1.23c-0.2-0.39-0.53-0.74-0.96-0.91c-0.6,1.59-0.82,3.37-0.1,4.91
			C386.78,132.59,387.1,133.04,387.29,133.24z"/>
		<path fill="none" stroke="#945A24" stroke-miterlimit="10" d="M384.52,157.71c1.92,1.18,3.02,3.34,2.76,5.41
			c-0.94-0.51-1.67-1.3-2.15-2.19c-0.48-0.88-0.73-1.86-0.85-2.84C384.26,157.89,384.31,157.58,384.52,157.71z"/>
		<path fill="none" stroke="#945A24" stroke-miterlimit="10" d="M386.15,155.79c-0.21,0.21-0.47,0.4-0.54,0.68
			c-0.07,0.28,0.09,0.58,0.34,0.77c0.25,0.19,0.57,0.28,0.89,0.34c1.24,0.24,2.55,0.08,3.74-0.32c1.19-0.4,2.27-1.03,3.27-1.73
			c-0.72-0.36-1.46-0.73-2.27-0.86c-0.68-0.11-1.38-0.04-2.06,0.09C388.21,155.01,386.72,155.21,386.15,155.79z"/>
	</g>
	<g>
		<path fill="none" stroke="#945A24" stroke-miterlimit="10" d="M575.3,313.46c-13.89,0.57-27.78,0.89-41.81,0.94
			c-1.22,1.6-2.45,3.19-3.67,4.82c0.68,5.65,1.28,11.32,1.79,16.99"/>
		<path fill="none" stroke="#945A24" stroke-miterlimit="10" d="M531.23,336.08c3.17,0.47,6.36-0.37,9.54-0.76
			c1.72-0.21,3.45-0.29,5.18-0.37c11.05-0.51,22.1-0.97,33.02-1.18c0.66-5.74,0.63-11.56-0.06-17.03c-1.11-1.13-2.22-2.27-3.33-3.4
			c-0.36,0.15-0.76,0.2-1.14,0.12"/>
		<path fill="none" stroke="#945A24" stroke-miterlimit="10" d="M578.62,333.86c-0.91,1.22-1.87,2.4-2.87,3.55"/>
		<path fill="none" stroke="#945A24" stroke-miterlimit="10" d="M531.8,336.44c0.86,0.96,1.71,1.92,2.51,2.63
			c6.2-0.14,12.41-0.28,18.13-0.67c6.17-0.23,12.35-0.45,18.52-0.68c1.68-0.06,3.37-0.12,5.05-0.29"/>
		<path fill="none" stroke="#945A24" stroke-miterlimit="10" d="M536.87,342.34c1.71-0.17,3.43-0.26,5.14-0.35
			c10.31-0.52,20.62-1.03,30.94-1.28"/>
		<path fill="none" stroke="#945A24" stroke-miterlimit="10" d="M575.46,337.69c-0.88,1.08-1.82,2.1-2.83,3.06"/>
		<path fill="none" stroke="#945A24" stroke-miterlimit="10" d="M570.62,343.4c-10.46,0.14-20.93,0.28-31.33,1.31"/>
		<path fill="none" stroke="#945A24" stroke-miterlimit="10" d="M572.63,340.92c-0.6,0.9-1.24,1.76-1.93,2.59"/>
		<path fill="none" stroke="#945A24" stroke-miterlimit="10" d="M539.79,344.75c-1-0.79-1.96-1.63-2.88-2.51"/>
		<path fill="none" stroke="#945A24" stroke-miterlimit="10" d="M533.96,338.97c1.29,1.13,2.48,2.38,3.54,3.73"/>
		<path fill="none" stroke="#945A24" stroke-miterlimit="10" d="M574.13,271.45c-0.03,14.09-0.06,28.17-0.09,42.26"/>
		<path fill="none" stroke="#945A24" stroke-miterlimit="10" d="M536.39,282.39c3.81-3.8,7.79-7.42,11.92-10.86"/>
		<path fill="none" stroke="#945A24" stroke-miterlimit="10" d="M536.9,299.42c4.43,4.43,8.51,9.21,12.24,14.24
			c0.09,0.14,0.17,0.27,0.26,0.41"/>
		<path fill="none" stroke="#945A24" stroke-miterlimit="10" d="M574.23,279.52c2.47-0.31,4.98-0.3,7.28,0.04
			c-0.27,7.7-0.43,15.4-0.36,23.08c-2.43-0.27-4.9-0.2-7.31,0.22"/>
		<path fill="none" stroke="#945A24" stroke-miterlimit="10" d="M579.23,267.03c-1.19,1.5-2.42,2.97-3.67,4.41"/>
		<path fill="none" stroke="#945A24" stroke-miterlimit="10" d="M530.3,266.91c1.9,1.66,3.8,3.33,5.71,4.99"/>
		<path fill="none" stroke="#945A24" stroke-miterlimit="10" d="M529.56,250.74c0,5.47,0.33,10.93,1,16.36"/>
		<path fill="none" stroke="#945A24" stroke-miterlimit="10" d="M578.04,249.28c0.4,6.02,0.67,12.05,0.82,18.07"/>
		<path fill="none" stroke="#945A24" stroke-miterlimit="10" d="M575.71,271.37c-13.47,0.13-26.94,0.22-40.41,0.28"/>
		<path fill="none" stroke="#945A24" stroke-miterlimit="10" d="M577.58,249.53c-16.04,0.24-32.08,0.75-48.1,1.53"/>
		<path fill="none" stroke="#945A24" stroke-miterlimit="10" d="M531.76,248.05c6.56-0.16,13.11-0.31,19.1-0.56
			c8.26,0.13,16.52-0.1,24.76-0.68"/>
		<path fill="none" stroke="#945A24" stroke-miterlimit="10" d="M573.42,243.86c-7.08-0.09-14.17,0.02-21.25,0.32"/>
		<path fill="none" stroke="#945A24" stroke-miterlimit="10" d="M535,244.53c5.9-0.19,11.81-0.28,17.71-0.29"/>
		<path fill="none" stroke="#945A24" stroke-miterlimit="10" d="M538.57,240.51c-2.9,3.51-5.97,6.88-9.19,10.1"/>
		<path fill="none" stroke="#945A24" stroke-miterlimit="10" d="M578.28,249.34c-3.14-3.09-6.19-6.27-9.01-9.57
			c-10.46,0.16-20.91,0.5-31.36,1.04"/>
		<path fill="none" stroke="#945A24" stroke-miterlimit="10" d="M520.78,301.8c5.37-0.48,10.74-0.97,16.12-1.45
			c-0.19-2.83-0.44-5.69-0.45-8.55c-0.01-3.28,0.29-6.57-0.15-9.73c-5.43-0.65-10.92-0.86-16.19-0.47
			C521.05,288.36,520.28,295.25,520.78,301.8z"/>
		<path fill="none" stroke="#945A24" stroke-miterlimit="10" d="M511.83,327.21"/>
		<path fill="none" stroke="#945A24" stroke-miterlimit="10" d="M499.03,297.16c7.2-0.17,14.41-0.34,21.61-0.51"/>
		<path fill="none" stroke="#945A24" stroke-miterlimit="10" d="M498.47,286.91c7.31,0.33,14.63,0.44,21.95,0.34"/>
		<path fill="none" stroke="#945A24" stroke-miterlimit="10" d="M489.73,299.22c3.08-0.29,6.16-0.42,9.25-0.39
			c-0.27-4.65-0.47-9.37-0.74-14.1c-3.2-0.1-6.41-0.09-9.38-0.05C489.11,289.62,489.36,294.56,489.73,299.22z"/>
		<path fill="none" stroke="#945A24" stroke-miterlimit="10" d="M489.1,296.53c-10.8,0.04-21.6,0.08-32.4,0.13"/>
		<path fill="none" stroke="#945A24" stroke-miterlimit="10" d="M488.5,286.6c-10.68-0.25-21.37,0.06-32.08,0.87
			c0.13,2.8,0.26,5.6,0.4,8.4c0.01,0.26,0.03,0.53,0.13,0.76"/>
		<path fill="none" stroke="#945A24" stroke-miterlimit="10" d="M440.25,295.41c5.49-0.39,11.01-0.44,16.51-0.14"/>
		<path fill="none" stroke="#945A24" stroke-miterlimit="10" d="M439.9,287.88c5.47,0.28,10.93,0.56,16.4,0.83"/>
		<path fill="none" stroke="#945A24" stroke-miterlimit="10" d="M432.59,298.62c2.55,0.26,5.13,0.32,7.69,0.19
			c0.31-4.57,0.28-9.29-0.11-13.97c-2.8-0.31-5.64-0.23-8.63,0.09c0.28,4.48,0.55,8.95,0.83,13.43
			C432.39,298.53,432.58,298.75,432.59,298.62z"/>
		<path fill="none" stroke="#945A24" stroke-miterlimit="10" d="M431.48,287.6c-9.45-0.06-18.89-0.01-28.34,0.13"/>
		<path fill="none" stroke="#945A24" stroke-miterlimit="10" d="M398.77,298.05c11.21-0.26,22.42-0.46,33.64-0.6"/>
		<path fill="none" stroke="#945A24" stroke-miterlimit="10" d="M313.36,298.96c1.89-0.26,3.8-0.28,5.71-0.29
			c8.41-0.05,16.82-0.1,25.23-0.15"/>
		<path fill="none" stroke="#945A24" stroke-miterlimit="10" d="M399.19,298.1c-11.75-0.24-23.51-0.16-35.05,0.43
			c-7.14,0.06-14.28,0.11-21.42,0.17"/>
		<path fill="none" stroke="#945A24" stroke-miterlimit="10" d="M403.46,287.7c-12.69-0.03-25.38-0.06-38.23-0.22
			c-10.18,0.17-20.35,0.34-30.3,0.51c-7.56,0.24-15.12,0.35-22.89,0.51c-1.12-1.56-3.17-2.27-5.09-2.14
			c-1.92,0.13-3.72,0.98-5.34,2.02c-1.12,0.71-2.21,1.56-2.82,2.75c-0.5,0.98-0.62,2.11-0.55,3.2c0.18,2.83,1.67,5.58,4.03,7.17
			c2.35,1.59,5.53,1.93,8.12,0.75c2.59-1.17,4.45-3.86,4.52-6.7c0.07-2.87-1.55-5.5-3.4-7.69"/>
		<path fill="none" stroke="#945A24" stroke-miterlimit="10" d="M335.41,287.91c-4.12,2.44-7.38,6.28-9.12,10.74"/>
		<path fill="none" stroke="#945A24" stroke-miterlimit="10" d="M342.96,287.85c-3.58,3.04-6.6,6.74-8.84,10.86"/>
		<path fill="none" stroke="#945A24" stroke-miterlimit="10" d="M350.63,287.85c-3.72,2.98-6.9,6.63-9.33,10.73"/>
		<path fill="none" stroke="#945A24" stroke-miterlimit="10" d="M359.78,287.45c-4.19,2.87-7.7,6.72-10.15,11.16"/>
		<path fill="none" stroke="#945A24" stroke-miterlimit="10" d="M366.75,287.35c-4.3,2.86-7.93,6.72-10.52,11.18"/>
		<path fill="none" stroke="#945A24" stroke-miterlimit="10" d="M374.51,287.67c-4.51,2.68-8.36,6.47-11.11,10.94"/>
		<path fill="none" stroke="#945A24" stroke-miterlimit="10" d="M382.47,287.49c-4.4,2.6-7.6,6.79-10.67,10.87"/>
		<path fill="none" stroke="#945A24" stroke-miterlimit="10" d="M389.16,287.61c-3.86,2.87-7.17,6.48-9.68,10.59"/>
		<path fill="none" stroke="#945A24" stroke-miterlimit="10" d="M396.48,287.53c-3.88,2.74-7.05,6.47-9.14,10.74"/>
		<path fill="none" stroke="#945A24" stroke-miterlimit="10" d="M403.89,287.77c-3.83,2.64-6.97,6.26-9.05,10.42"/>
		<path fill="none" stroke="#945A24" stroke-miterlimit="10" d="M410.68,287.7c-3.41,2.93-6.29,6.47-8.46,10.41"/>
		<path fill="none" stroke="#945A24" stroke-miterlimit="10" d="M417.86,287.77c-3.09,3.02-5.74,6.49-7.83,10.27"/>
	</g>
	<g>
		<path fill="none" stroke="#945A24" stroke-miterlimit="10" d="M50.18,278.48c-1.47-1.13-2.99-2.2-5.13-3.42
			c0.76-1.21,1.77-2.27,2.94-3.1c0.59-0.42,1.43-0.78,2-0.33c0.36,0.27,0.47,0.76,0.52,1.21c0.3,2.52-0.44,5.05-1.39,7.4
			c-1.13,2.81-3.05,5.86-6.07,6.12c-0.44,0.04-0.9,0.01-1.27-0.21c-0.41-0.24-0.67-0.68-0.86-1.12c-0.84-1.91-0.73-4.09-0.4-6.15
			c1-6.08,3.96-11.82,8.34-16.15c0.87-0.86,1.82-1.68,2.95-2.15c1.13-0.46,2.49-0.51,3.54,0.12c1.07,0.65,1.65,1.92,1.74,3.17
			c0.09,1.25-0.26,2.49-0.68,3.66"/>
		<path fill="none" stroke="#945A24" stroke-miterlimit="10" d="M56.68,265.61c-1.08,8.8-4.27,17.33-9.23,24.67
			c-0.82,1.22-1.7,2.41-2.8,3.39c-1.15,1.02-2.75,1.81-4.19,1.28c-1.06-0.39-1.78-1.44-2.08-2.53s-0.23-2.25-0.21-3.38
			c2.51,1.12,4.87,2.56,7.02,4.28"/>
		<path fill="none" stroke="#945A24" stroke-miterlimit="10" d="M56.48,261.77c20.68,18.59,41.63,36.88,62.84,54.87"/>
		<path fill="none" stroke="#945A24" stroke-miterlimit="10" d="M39.44,294.4c2.75,2.77,5.73,5.31,8.91,7.59
			c2.14,1.53,4.36,2.95,6.54,4.42c2.5,1.69,4.94,3.46,7.38,5.23c14.98,10.87,29.97,21.75,44.41,33.91
			c6.53-6.59,11.13-15.05,13.13-24.1c0.44-2.01,0.56-4.53-1.14-5.67"/>
		<path fill="none" stroke="#945A24" stroke-miterlimit="10" d="M50.21,271.76c1.53,1.01,3.01,2.08,4.46,3.21"/>
		<path fill="none" stroke="#945A24" stroke-miterlimit="10" d="M42.14,286.28c2.02,1.15,4.04,2.3,6.07,3.45"/>
		<path fill="none" stroke="#945A24" stroke-miterlimit="10" d="M107.56,203.77c-14.48,21.41-29.2,42.65-44.14,63.74"/>
		<path fill="none" stroke="#945A24" stroke-miterlimit="10" d="M45.31,300.13c-2.61,4.05-5.23,8.09-7.84,12.14"/>
		<path fill="none" stroke="#945A24" stroke-miterlimit="10" d="M14.7,291.41c1.34,5.21,4.85,9.69,9.11,12.98
			c4.26,3.28,9.27,5.48,14.34,7.27"/>
		<path fill="none" stroke="#945A24" stroke-miterlimit="10" d="M68.49,196.08c-11.43,19.08-22.12,38.6-32.81,58.11
			c-2.7,4.92-5.39,9.84-8.09,14.76c-4.26,7.77-8.52,15.55-12.78,23.32"/>
		<path fill="none" stroke="#945A24" stroke-miterlimit="10" d="M100.83,194.56c0.59-0.86,0.85-1.72,1.7-2.66
			c-3.58-2.89-7.43-5.46-11.47-7.67c-4.04-2.21-8.58-4.1-13.13-3.36c-1.21,0.2-2.49,0.66-3.12,1.71c-0.59,0.99-0.44,2.28,0.09,3.3
			s1.39,1.82,2.24,2.59c7.75,7.02,16.51,13.31,26.6,16.09c0.88,0.24,1.87,0.45,2.68,0.02c0.92-0.49,1.27-1.7,1.07-2.72
			c-0.2-1.03-0.84-1.91-1.49-2.72C103.48,196.02,100.72,193.36,100.83,194.56z"/>
		<path fill="none" stroke="#945A24" stroke-miterlimit="10" d="M68.25,196.76c2.05-3.86,4.17-7.68,6.38-11.46"/>
		<path fill="none" stroke="#945A24" stroke-miterlimit="10" d="M101.2,194.72c-2.47-2.59-5.54-4.83-9.09-5.34
			c-1-0.14-2.28,0.01-2.63,0.96c-0.18,0.48-0.04,1.04,0.24,1.47c0.28,0.43,0.69,0.77,1.09,1.09c1.68,1.37,3.41,2.71,5.29,3.5
			c-0.97,1.22-1.86,2.51-2.66,3.85"/>
		<path fill="none" stroke="#945A24" stroke-miterlimit="10" d="M89.51,190.06c-1.13,1.89-2.32,3.74-3.56,5.56"/>
		<path fill="none" stroke="#945A24" stroke-miterlimit="10" d="M36.66,160.13c8.31,15.85,16.63,31.71,24.94,47.56"/>
		<path fill="none" stroke="#945A24" stroke-miterlimit="10" d="M82.02,241.57c0.91,1.5,1.68,3.08,2.25,4.74"/>
		<path fill="none" stroke="#945A24" stroke-miterlimit="10" d="M36.84,161.04c-0.57,5.18-1.14,10.37-1.57,15.27
			c6.31,14.06,13.48,27.73,21.47,40.91"/>
		<path fill="none" stroke="#945A24" stroke-miterlimit="10" d="M77.56,247.88c1.49,2.55,2.99,5.1,4.48,7.64"/>
		<path fill="none" stroke="#945A24" stroke-miterlimit="10" d="M81.46,255.65c0.78-3.65,1.55-7.3,2.09-11.36
			c1.93,1.32,3.01,3.79,2.66,6.11C85.86,252.71,84.1,254.75,81.46,255.65z"/>
		<path fill="none" stroke="#945A24" stroke-miterlimit="10" d="M83.75,244.79c17.05-10.61,34.1-21.22,49.86-30.16
			c-1.08,3.04-4.19,4.79-7.04,6.31C112.05,228.68,98.02,237.34,83.75,244.79z"/>
		<path fill="none" stroke="#945A24" stroke-miterlimit="10" d="M132.37,217.31c0.04,0.96,0.07,1.92,0.11,2.88
			c-16.16,8.47-31.95,17.62-47.33,27.43"/>
		<path fill="none" stroke="#945A24" stroke-miterlimit="10" d="M85.83,250.16c15.27-10.12,31.07-19.43,47.33-27.86
			c-0.31-0.65-0.61-1.3-0.92-1.95"/>
		<path fill="none" stroke="#945A24" stroke-miterlimit="10" d="M132.9,222.5c-17.11,10.51-33.96,21.46-50.53,32.82"/>
		<path fill="none" stroke="#945A24" stroke-miterlimit="10" d="M127.47,217.93c2.31-1.48,4.69-2.83,7.14-4.05
			c-3.89-7.63-8.03-14.89-12.16-22.16c-10.35-18.17-20.71-36.35-32.62-54.05c-18.23,6.49-36,14.25-53.14,23.22"/>
		<path fill="none" stroke="#945A24" stroke-miterlimit="10" d="M110.9,172.38c8.27-12.77,16.55-25.55,24.82-38.32"/>
		<path fill="none" stroke="#945A24" stroke-miterlimit="10" d="M133.85,137.31c0.18,1.45,0.36,2.9,0.42,4.95
			c-7.8,10.33-15.13,21.02-21.97,32.01"/>
		<path fill="none" stroke="#945A24" stroke-miterlimit="10" d="M133.18,144.69c0.14,0.83,0.28,1.67,0.39,2.62
			c-7.09,9.53-14,19.21-20.72,29.01"/>
		<path fill="none" stroke="#945A24" stroke-miterlimit="10" d="M132.13,149.17c0.31,0.83,0.62,1.67,0.97,2.2
			c-6.66,9.07-13,18.37-19.02,27.87"/>
		<path fill="none" stroke="#945A24" stroke-miterlimit="10" d="M131.84,152.87c0.18,0.7,0.35,1.41,0.53,2.11"/>
		<path fill="none" stroke="#945A24" stroke-miterlimit="10" d="M132.26,154.18c-0.39,2.39-1.84,4.45-3.25,6.42
			c-4.79,6.68-9.59,13.36-14.38,20.03"/>
		<path fill="none" stroke="#945A24" stroke-miterlimit="10" d="M135.85,134.78c-7.56-5.3-15.25-10.4-23.07-15.31
			c-4.3-2.7-8.63-5.34-12.97-7.98c-13.89-8.46-27.79-16.92-42.27-25.36c-13.66,15.4-27.36,30.85-39.16,47.34
			c10.16,6.51,20.11,13.35,29.83,20.5"/>
		<path fill="none" stroke="#945A24" stroke-miterlimit="10" d="M18.89,133.76c0.1,6.19,0.73,12.36,0.88,18.71
			c5.67,4.82,11.33,9.64,17,14.46"/>
	</g>
	<g>
		<path fill="none" stroke="#945A24" stroke-miterlimit="10" d="M469.82,138.74c1.77,2.8,5.11,8.53,5.11,8.53l-4.15,4.15l0.6,0.6"/>
		<path fill="none" stroke="#945A24" stroke-miterlimit="10" d="M471.03,151.68c1.68,3.58,3.35,7.16,4.7,11.09
			c1.65-4.08,3.3-8.17,4.95-12.25"/>
		<path fill="none" stroke="#945A24" stroke-miterlimit="10" d="M474.97,147.04c2.02,1.36,4.04,2.71,6.05,4.07"/>
		<path fill="none" stroke="#945A24" stroke-miterlimit="10" d="M470.16,139.45c-0.33-0.48-0.66-0.95-0.52-1.59
			c6.05,3.26,11.68,7.29,16.57,11.85c-2.29,17.16-4.19,34.37-5.53,51.55c-0.26-0.38,0.05-1,0.51-1"/>
		<path fill="none" stroke="#945A24" stroke-miterlimit="10" d="M469.15,137.4c-3.9,3.83-9.35,5.74-13.56,9.36
			c0.23,17.65,0.2,35.3-0.58,52.7c4.82,6.22,9.63,12.44,14.51,18.6"/>
		<path fill="none" stroke="#945A24" stroke-miterlimit="10" d="M454.42,199.08c3.3,2.17,6.6,4.35,9.91,6.22
			c2.2,4.03,4.01,8.26,5.22,12.69c2.08-4.18,3.79-8.56,5.16-13.03"/>
		<path fill="none" stroke="#945A24" stroke-miterlimit="10" d="M475.6,162.25c0.45,14.56,0.17,29.15-0.85,43.69"/>
		<path fill="none" stroke="#945A24" stroke-miterlimit="10" d="M480.77,200.79c-2.26,1.36-4.44,2.88-6.49,4.54"/>
		<path fill="none" stroke="#945A24" stroke-miterlimit="10" d="M463.9,205.48c-0.33-17.92-0.36-35.85-0.1-53.78"/>
		<path fill="none" stroke="#945A24" stroke-miterlimit="10" d="M469.04,138.15c-1.78,4.74-3.67,9.44-5.66,14.1"/>
		<path fill="none" stroke="#945A24" stroke-miterlimit="10" d="M456.34,146.54c2.61,1.5,5.11,3.21,7.46,5.1"/>
		<path fill="none" stroke="#945A24" stroke-miterlimit="10" d="M471.11,151.19c-2.6,0.16-5.2,0.33-7.8,0.49"/>
		<path fill="none" stroke="#945A24" stroke-miterlimit="10" d="M480.96,201.76c-3.52,5.74-7.31,11.31-11.43,16.64"/>
		<path fill="none" stroke="#945A24" stroke-miterlimit="10" d="M480.12,150.98c1.75-0.84,3.64-1.38,5.59-1.39"/>
	</g>
	<g>
		<path stroke="#A7732A" stroke-miterlimit="10" d="M148.93,153.17c0,2.4-0.44,4.18-1.32,5.36c-0.88,1.18-2.38,1.77-4.49,1.77
			c-1.08,0-1.98-0.12-2.7-0.36l0.12-0.6c0.88,0.2,1.68,0.3,2.4,0.3c2,0,3.35-0.52,4.07-1.56c0.72-1.04,1.08-2.67,1.08-4.91v-18.03
			c-0.28,0.04-0.68,0.06-1.2,0.06c-2.4,0-4.33-0.76-5.81-2.28c-1.48-1.52-2.22-3.53-2.22-6.05s1.32-4.25,3.95-5.21
			c0.48-0.16,0.92-0.3,1.32-0.42v-0.12l-1.38,0.24c-3.83-0.08-7.04-0.85-9.61-2.31c-2.58-1.46-4.02-3.76-4.34-6.92l0.72-0.12
			c0.64,5.75,5.59,8.62,14.85,8.62c1.32,0,2.83-0.06,4.55-0.18V153.17z M146.89,134.49c0.56,0,0.96-0.02,1.2-0.06v-13.18
			c-2.24,0.16-3.87,0.46-4.91,0.9c-2.32,0.92-3.47,2.51-3.47,4.76c0,2.26,0.66,4.08,1.98,5.48
			C143,133.79,144.74,134.49,146.89,134.49z M150.49,120.36c4.55-0.32,7.73-0.48,9.52-0.48c1.8,0,3.47,0.34,5.03,1.02
			c1.56,0.68,2.82,1.58,3.8,2.69c0.98,1.12,1.77,2.54,2.37,4.25c1.08,3.03,1.62,6.87,1.62,11.5c0,4.63-0.97,8.92-2.9,12.88
			c-1.94,3.95-4.84,6.67-8.71,8.14c-3.71,0-7.29-0.94-10.72-2.81V120.36z M159.65,120.6c-1,0-3.77,0.14-8.32,0.42v36.05
			c3.35,1.72,6.59,2.58,9.7,2.58c2.48-0.96,4.57-2.58,6.29-4.85c3.11-4.11,4.67-9.32,4.67-15.63c0-9.06-2.08-14.77-6.23-17.13
			C164.08,121.07,162.05,120.6,159.65,120.6z"/>
		<path stroke="#A7732A" stroke-miterlimit="10" d="M201.81,135.45v16.23c0,5.31,1.72,7.97,5.15,7.97c1.04,0,1.82-0.16,2.34-0.48
			l0.36,0.42c-0.6,0.48-1.56,0.72-2.88,0.72c-3.83,0-5.75-2.87-5.75-8.62v-1.56c-1.4,2.32-3.16,4.38-5.3,6.2
			c-2.14,1.82-4.3,3.2-6.5,4.16c-3.31-1.48-4.97-4.61-4.97-9.4c0-0.2,0-0.38,0-0.54l0.3-12.52c0-0.28,0-0.56,0-0.84
			c0-1.96-0.27-3.44-0.81-4.46c-0.54-1.02-1.79-1.53-3.74-1.53c-1.04,0-1.82,0.16-2.34,0.48l-0.36-0.42
			c0.6-0.48,1.56-0.72,2.87-0.72c2.16,0,3.55,0.57,4.19,1.71c0.64,1.14,0.96,2.81,0.96,5c0,0.24,0,0.5,0,0.78l-0.3,12.52
			c0,0.24,0,0.48,0,0.72c0,4.23,1.42,7.07,4.25,8.5c2.28-1.04,4.46-2.52,6.56-4.46s3.82-4.06,5.18-6.38v-13.47
			c0-2.71-1.72-4.07-5.15-4.07c-0.72,0-1.52,0.1-2.4,0.3l-0.12-0.54c0.72-0.28,1.68-0.42,2.87-0.42s2.31,0.26,3.32,0.78
			c1.02,0.52,1.63,1.3,1.83,2.34c0.2-1.04,0.82-1.82,1.86-2.34c1.04-0.52,2.16-0.78,3.35-0.78s2.16,0.14,2.87,0.42l-0.12,0.54
			c-0.88-0.2-1.68-0.3-2.4-0.3C203.53,131.38,201.81,132.73,201.81,135.45z"/>
		<path stroke="#A7732A" stroke-miterlimit="10" d="M236.55,139.76c0-4.23-1.42-7.07-4.25-8.5c-2.32,1.04-4.52,2.53-6.62,4.46
			c-2.1,1.94-3.8,4.06-5.12,6.38v13.47c0,2.72,1.72,4.07,5.15,4.07c0.72,0,1.52-0.1,2.4-0.3l0.12,0.54
			c-0.72,0.28-1.68,0.42-2.87,0.42s-2.32-0.26-3.35-0.78c-1.04-0.52-1.66-1.3-1.86-2.34c-0.2,1.04-0.81,1.82-1.83,2.34
			c-1.02,0.52-2.13,0.78-3.32,0.78s-2.16-0.14-2.87-0.42l0.12-0.54c0.88,0.2,1.68,0.3,2.4,0.3c3.43,0,5.15-1.36,5.15-4.07v-16.23
			c0-5.31-1.72-7.96-5.15-7.96c-1.04,0-1.82,0.16-2.34,0.48l-0.36-0.42c0.6-0.48,1.56-0.72,2.87-0.72c3.83,0,5.75,2.87,5.75,8.62
			v1.62c1.36-2.36,3.09-4.43,5.21-6.23c2.12-1.8,4.31-3.19,6.59-4.19c3.31,1.48,4.97,4.61,4.97,9.4c0,0.2,0,0.38,0,0.54l-0.3,12.52
			c0,0.28,0,0.56,0,0.84c0,1.96,0.27,3.44,0.81,4.46s1.79,1.53,3.74,1.53c1.04,0,1.82-0.16,2.34-0.48l0.36,0.42
			c-0.6,0.48-1.56,0.72-2.87,0.72c-2.16,0-3.55-0.57-4.19-1.71c-0.64-1.14-0.96-2.8-0.96-5c0-0.24,0-0.5,0-0.78l0.3-12.52
			C236.55,140.24,236.55,140,236.55,139.76z"/>
		<path stroke="#A7732A" stroke-miterlimit="10" d="M268.05,134.55v16.77c0,4.99,0.52,9.98,1.56,14.97
			c-0.48,1.08-1.45,2.25-2.9,3.53c-1.46,1.28-2.77,2.16-3.92,2.64c-2.16,0-4.49-0.37-7.01-1.11c-2.52-0.74-4.67-1.71-6.47-2.9
			c1.12-3.11,3.41-6.37,6.89-9.76c-4.31-2.67-6.47-6.55-6.47-11.62c0-3.07,0.7-6.14,2.1-9.19c1.4-3.05,3.25-5.5,5.57-7.34
			c3.71,0,7.03,0.84,9.94,2.52c0.2-2,0.86-3.69,1.98-5.09l0.54,0.3C268.65,130.18,268.05,132.27,268.05,134.55z M267.27,151.32
			v-3.83c-1.36,2.56-4.03,5.67-8.02,9.34c-1.8,1.68-3.05,2.87-3.77,3.59c-0.72,0.72-1.62,1.81-2.7,3.26
			c-1.08,1.46-1.92,2.92-2.52,4.4c4.03,2.44,8.16,3.65,12.4,3.65c1.04-0.48,2.21-1.28,3.5-2.4c1.3-1.12,2.19-2.14,2.67-3.05
			C267.79,161.1,267.27,156.11,267.27,151.32z M252.5,138.17c-1.3,3.01-1.95,5.84-1.95,8.47c0,5.35,2.08,9.18,6.23,11.5l2.04-1.86
			c1.36-1.28,2.46-2.34,3.29-3.17c2.28-2.28,3.99-4.57,5.15-6.89v-12.46c-2.72-1.64-5.91-2.49-9.58-2.58
			C255.53,132.83,253.8,135.16,252.5,138.17z"/>
		<path stroke="#A7732A" stroke-miterlimit="10" d="M281.04,155.33c-1.52-2.48-2.28-5.23-2.28-8.26c0-3.03,0.66-6.06,1.98-9.07
			c1.32-3.01,3.11-5.5,5.39-7.46c6.91,0,10.36,2.36,10.36,7.07c0,1.52-0.28,3.02-0.84,4.49c1.12-0.04,2.48-0.06,4.07-0.06v0.6
			c-0.4,0-0.78,0-1.14,0c-5.67,0-11.94,0.54-18.8,1.62c-0.12,1.04-0.18,2.02-0.18,2.93c0,2.8,0.68,5.34,2.04,7.64
			c1.36,2.3,3.27,3.9,5.75,4.82c1.48-0.6,2.97-1.47,4.49-2.61c1.52-1.14,2.75-2.34,3.71-3.62l0.54,0.36c-1,1.32-2.33,2.6-3.98,3.86
			c-1.66,1.26-3.28,2.21-4.88,2.84C284.63,159.52,282.56,157.81,281.04,155.33z M295.71,137.6c0-4.27-3.11-6.41-9.34-6.41
			c-3.39,2.91-5.55,7.03-6.47,12.34c4.35-0.72,9.38-1.2,15.09-1.44C295.47,140.54,295.71,139.04,295.71,137.6z"/>
		<path stroke="#A7732A" stroke-miterlimit="10" d="M316.49,160.36c-4.07,0-7.04-1.37-8.89-4.1c-1.86-2.73-2.79-6.4-2.79-10.99
			c0-5.47,1.62-10.16,4.85-14.07c1.28-0.28,2.58-0.42,3.89-0.42c4.11,0,7.09,1.19,8.92,3.56c1.84,2.38,2.75,5.82,2.75,10.33
			c0,6.27-1.62,11.36-4.85,15.27C319.11,160.22,317.81,160.36,316.49,160.36z M316.67,159.7c1.16,0,2.28-0.12,3.35-0.36
			c2.95-3.75,4.43-8.62,4.43-14.61c0-4.35-0.86-7.66-2.58-9.91c-1.72-2.25-4.55-3.38-8.5-3.38c-1.16,0-2.28,0.12-3.35,0.36
			c-2.95,3.63-4.43,8.11-4.43,13.42C305.6,154.87,309.29,159.7,316.67,159.7z"/>
		<path stroke="#A7732A" stroke-miterlimit="10" d="M355.66,139.76c0-4.23-1.42-7.07-4.25-8.5c-2.32,1.04-4.52,2.53-6.62,4.46
			c-2.1,1.94-3.8,4.06-5.12,6.38v13.47c0,2.72,1.72,4.07,5.15,4.07c0.72,0,1.52-0.1,2.4-0.3l0.12,0.54
			c-0.72,0.28-1.68,0.42-2.88,0.42c-1.2,0-2.32-0.26-3.35-0.78c-1.04-0.52-1.66-1.3-1.86-2.34c-0.2,1.04-0.81,1.82-1.83,2.34
			c-1.02,0.52-2.13,0.78-3.32,0.78c-1.2,0-2.16-0.14-2.88-0.42l0.12-0.54c0.88,0.2,1.68,0.3,2.4,0.3c3.43,0,5.15-1.36,5.15-4.07
			v-16.23c0-5.31-1.72-7.96-5.15-7.96c-1.04,0-1.82,0.16-2.34,0.48l-0.36-0.42c0.6-0.48,1.56-0.72,2.88-0.72
			c3.83,0,5.75,2.87,5.75,8.62v1.62c1.36-2.36,3.09-4.43,5.21-6.23c2.12-1.8,4.31-3.19,6.59-4.19c3.31,1.48,4.97,4.61,4.97,9.4
			c0,0.2,0,0.38,0,0.54l-0.3,12.52c0,0.28,0,0.56,0,0.84c0,1.96,0.27,3.44,0.81,4.46c0.54,1.02,1.79,1.53,3.74,1.53
			c1.04,0,1.82-0.16,2.34-0.48l0.36,0.42c-0.6,0.48-1.56,0.72-2.88,0.72c-2.16,0-3.55-0.57-4.19-1.71c-0.64-1.14-0.96-2.8-0.96-5
			c0-0.24,0-0.5,0-0.78l0.3-12.52C355.66,140.24,355.66,140,355.66,139.76z"/>
	</g>
	<g>
		<path stroke="#A7732A" stroke-miterlimit="10" d="M273.21,211.24c0,2.4-0.44,4.18-1.32,5.36c-0.88,1.18-2.38,1.77-4.49,1.77
			c-1.08,0-1.98-0.12-2.69-0.36l0.12-0.6c0.88,0.2,1.68,0.3,2.4,0.3c2,0,3.35-0.52,4.07-1.56c0.72-1.04,1.08-2.67,1.08-4.91v-29.7
			c0-0.2,0.06-0.66,0.18-1.38h-0.12c-0.04,0.08-0.1,0.31-0.18,0.69c-0.08,0.38-0.16,0.67-0.24,0.87l-3.77,9.52l-10.36,24.85
			l-1.02,0.18c0.12-0.52,0.18-1.18,0.18-1.98c0-3.67-1.16-9.12-3.47-16.35l-1.86-5.81c-1.48-4.67-2.42-7.98-2.81-9.94l-6.35,30.36
			c-0.96,4.27-2.24,7.69-3.83,10.24c-1.92,2.95-4.79,4.43-8.62,4.43v-0.72c2.99,0,5.33-1.01,7.01-3.02
			c1.68-2.02,3.01-4.78,4.01-8.29l0.6-1.26l-0.12-0.06c-1.36,3.03-3.51,4.55-6.47,4.55c-1.96,0-3.57-0.66-4.85-1.98
			c-1.28-1.32-1.92-2.97-1.92-4.97c0-6.51,5.21-9.76,15.63-9.76l4.73-22.58l-2.28-0.12c-0.24,0-0.48,0-0.72,0
			c-2.08,0-3.78,0.51-5.12,1.53c-1.34,1.02-2.01,2.37-2.01,4.04c0,0.8,0.12,1.46,0.36,1.98l-0.48,0.36
			c-0.44-0.48-0.66-1.31-0.66-2.49c0-1.18,0.42-2.29,1.26-3.35c0.84-1.06,1.92-1.77,3.23-2.13c0.36-0.08,0.82-0.16,1.38-0.24v-0.12
			l-1.38,0.06c-3.83-0.48-6.95-1.57-9.34-3.26c-2.4-1.7-3.59-4.14-3.59-7.34l0.72-0.06c0,1.84,0.46,3.42,1.38,4.76
			c0.92,1.34,2.18,2.39,3.77,3.14c3.03,1.44,6.63,2.24,10.78,2.4l3.47,0.18v1.2c0,1.68,1.02,5.75,3.05,12.22l1.86,5.81
			c2.28,7.11,3.41,12.58,3.41,16.41v0.24l0.66-1.56c0.24-0.56,0.36-1.46,0.36-2.69c0-3.19-1.22-8.6-3.65-16.23l-1.86-5.81
			c-1.88-5.59-2.74-8.76-2.58-9.52h0.78c0,0.64,0.88,3.73,2.64,9.28l1.86,5.81c2.35,7.39,3.53,12.8,3.53,16.23v0.24l7.97-19.1
			c2.75-6.79,4.41-11.12,4.97-13l0.72,0.06V211.24z M230.33,206.92c-0.76,1.24-1.14,2.75-1.14,4.52c0,1.78,0.56,3.26,1.68,4.46
			c1.12,1.2,2.42,1.8,3.89,1.8c1.48,0,2.65-0.27,3.53-0.81c0.88-0.54,1.62-1.35,2.22-2.43c0.88-1.68,1.62-3.97,2.22-6.89l1.08-5.15
			C236.74,202.43,232.25,203.93,230.33,206.92z M274.77,211.24V179.5c0-2.4,0.44-4.18,1.32-5.36c0.88-1.18,2.37-1.77,4.49-1.77
			c1.08,0,1.98,0.12,2.7,0.36l-0.12,0.6c-0.88-0.2-1.68-0.3-2.4-0.3c-2,0-3.35,0.52-4.07,1.56c-0.72,1.04-1.08,2.68-1.08,4.91v31.74
			c0,2.24,0.36,3.87,1.08,4.91c0.72,1.04,2.08,1.56,4.07,1.56c0.72,0,1.52-0.1,2.4-0.3l0.12,0.6c-0.72,0.24-1.62,0.36-2.7,0.36
			c-2.12,0-3.61-0.59-4.49-1.77C275.21,215.42,274.77,213.63,274.77,211.24z"/>
		<path stroke="#A7732A" stroke-miterlimit="10" d="M306.87,192.61v17.13c0,5.31,1.72,7.97,5.15,7.97c1.04,0,1.82-0.16,2.34-0.48
			l0.36,0.42c-0.6,0.48-1.56,0.72-2.88,0.72c-3.83,0-5.75-2.87-5.75-8.62v-1.32c-1.36,2.28-3.14,4.33-5.36,6.17
			c-2.22,1.84-4.3,3.15-6.26,3.95c-2.12-1.12-3.69-2.83-4.73-5.15c-1.04-2.31-1.56-5.01-1.56-8.08c0-3.07,0.71-6.15,2.13-9.22
			c1.42-3.07,3.44-5.57,6.08-7.49c3.55,0,6.81,0.84,9.76,2.52c0.2-2,0.86-3.69,1.98-5.09l0.54,0.3
			C307.47,188.24,306.87,190.34,306.87,192.61z M290.97,196.5c-1.3,2.92-1.95,5.82-1.95,8.71c0,2.9,0.46,5.45,1.38,7.67
			c0.92,2.22,2.31,3.82,4.19,4.82c1.84-0.72,3.92-2.09,6.26-4.1c2.34-2.02,4.08-4.14,5.24-6.38v-15.39
			c-2.96-1.72-6.13-2.58-9.52-2.58C294.13,191.17,292.27,193.59,290.97,196.5z"/>
		<path stroke="#A7732A" stroke-miterlimit="10" d="M320.76,197.04c0,1,0.74,2.02,2.22,3.05c1.48,1.04,3.1,1.93,4.88,2.66
			c1.78,0.74,3.4,1.66,4.88,2.75c1.48,1.1,2.22,2.23,2.22,3.38c0,1.84-0.8,3.63-2.4,5.39c-1.6,1.76-3.43,3.17-5.51,4.25
			c-2.99,0-5.87-0.84-8.62-2.52l0.36-0.54c2.91,1.6,5.63,2.4,8.14,2.4c1.92-1,3.6-2.32,5.06-3.95c1.46-1.64,2.19-3.31,2.19-5.03
			c0-1-0.74-2.02-2.22-3.05c-1.48-1.04-3.11-1.93-4.88-2.67c-1.78-0.74-3.4-1.66-4.88-2.75c-1.48-1.1-2.22-2.34-2.22-3.71
			s0.75-2.87,2.25-4.49c1.5-1.62,3.08-2.82,4.76-3.62c2.83,0,5.47,0.7,7.91,2.1l-0.36,0.54c-2.4-1.32-4.85-1.98-7.37-1.98
			c-1.6,0.8-3.06,1.95-4.4,3.44S320.76,195.65,320.76,197.04z"/>
		<path stroke="#A7732A" stroke-miterlimit="10" d="M340.23,190.16v-0.66h5.93l0.18-6.89h0.78l-0.18,6.89h9.64v0.66h-9.64
			l-0.36,18.45c0,0.12,0,0.24,0,0.36c0,4.47,1.42,7.43,4.25,8.86c2.47-1.16,4.59-2.69,6.35-4.61l0.48,0.42
			c-1.72,1.96-4.01,3.59-6.89,4.91c-3.31-1.48-4.97-4.61-4.97-9.4c0-0.2,0-0.38,0-0.54l0.36-18.45H340.23z"/>
		<path stroke="#A7732A" stroke-miterlimit="10" d="M364.96,213.39c-1.52-2.48-2.28-5.23-2.28-8.26c0-3.03,0.66-6.06,1.98-9.07
			c1.32-3.01,3.11-5.5,5.39-7.46c6.91,0,10.36,2.36,10.36,7.07c0,1.52-0.28,3.02-0.84,4.49c1.12-0.04,2.48-0.06,4.07-0.06v0.6
			c-0.4,0-0.78,0-1.14,0c-5.67,0-11.94,0.54-18.8,1.62c-0.12,1.04-0.18,2.02-0.18,2.93c0,2.8,0.68,5.34,2.04,7.64
			c1.36,2.3,3.27,3.9,5.75,4.82c1.48-0.6,2.97-1.47,4.49-2.61c1.52-1.14,2.75-2.34,3.71-3.62l0.54,0.36c-1,1.32-2.33,2.6-3.98,3.86
			c-1.66,1.26-3.28,2.21-4.88,2.84C368.55,217.58,366.48,215.87,364.96,213.39z M379.63,195.67c0-4.27-3.11-6.41-9.34-6.41
			c-3.39,2.91-5.55,7.03-6.47,12.34c4.35-0.72,9.38-1.2,15.09-1.44C379.39,198.6,379.63,197.1,379.63,195.67z"/>
		<path stroke="#A7732A" stroke-miterlimit="10" d="M394.66,213.63c0,2.72,1.72,4.07,5.15,4.07c0.72,0,1.52-0.1,2.4-0.3l0.12,0.54
			c-0.72,0.28-1.68,0.42-2.88,0.42c-1.2,0-2.32-0.26-3.35-0.78c-1.04-0.52-1.66-1.3-1.86-2.34c-0.2,1.04-0.81,1.82-1.83,2.34
			c-1.02,0.52-2.13,0.78-3.32,0.78c-1.2,0-2.16-0.14-2.88-0.42l0.12-0.54c0.88,0.2,1.68,0.3,2.4,0.3c3.43,0,5.15-1.36,5.15-4.07
			V197.4c0-5.31-1.72-7.96-5.15-7.96c-1.04,0-1.82,0.16-2.34,0.48l-0.36-0.42c0.6-0.48,1.56-0.72,2.88-0.72
			c3.83,0,5.75,2.87,5.75,8.62v1.44c2.2-5.19,5.37-8.6,9.52-10.24c1.44,1.64,2.16,4.09,2.16,7.37c0,0.2,0,0.38,0,0.54h-0.78
			c0-0.2,0-0.4,0-0.6c0-2.83-0.56-4.99-1.68-6.47c-2.16,1-3.9,2.37-5.24,4.1s-2.67,3.98-3.98,6.74V213.63z"/>
		<path stroke="#A7732A" stroke-miterlimit="10" d="M413.65,180.45c-0.8,0-1.2-0.45-1.2-1.35c0-0.9,0.44-1.35,1.32-1.35
			c0.88,0,1.32,0.58,1.32,1.74c0,3.07-1.44,5.97-4.31,8.68l-0.48-0.48c2.32-2.4,3.63-4.85,3.95-7.37
			C414.09,180.41,413.89,180.45,413.65,180.45z"/>
		<path stroke="#A7732A" stroke-miterlimit="10" d="M425.38,197.04c0,1,0.74,2.02,2.22,3.05c1.48,1.04,3.1,1.93,4.88,2.66
			c1.78,0.74,3.4,1.66,4.88,2.75c1.48,1.1,2.22,2.23,2.22,3.38c0,1.84-0.8,3.63-2.4,5.39c-1.6,1.76-3.43,3.17-5.51,4.25
			c-2.99,0-5.87-0.84-8.62-2.52l0.36-0.54c2.91,1.6,5.63,2.4,8.14,2.4c1.92-1,3.6-2.32,5.06-3.95c1.46-1.64,2.19-3.31,2.19-5.03
			c0-1-0.74-2.02-2.22-3.05c-1.48-1.04-3.11-1.93-4.88-2.67c-1.78-0.74-3.4-1.66-4.88-2.75c-1.48-1.1-2.22-2.34-2.22-3.71
			s0.75-2.87,2.25-4.49c1.5-1.62,3.08-2.82,4.76-3.62c2.83,0,5.47,0.7,7.91,2.1l-0.36,0.54c-2.4-1.32-4.85-1.98-7.37-1.98
			c-1.6,0.8-3.06,1.95-4.4,3.44S425.38,195.65,425.38,197.04z"/>
	</g>
	<g>
		<path stroke="#A7732A" stroke-miterlimit="10" d="M293.15,251.61c0-1.32-0.66-2.45-1.98-3.39c-1.32-0.94-3.81-2.09-7.48-3.46
			c-3.67-1.36-6.66-2.78-8.97-4.24c-2.31-1.46-3.46-3.21-3.46-5.26c0-2.05,1.15-4.35,3.46-6.92c2.31-2.57,4.54-4.39,6.71-5.47
			c4.42,0,8.61,1.11,12.57,3.32l-0.42,0.71c-3.95-2.12-7.91-3.18-11.86-3.18l-0.99,0.56c-2.07,1.32-4,3.05-5.79,5.19
			c-1.79,2.14-2.68,4.1-2.68,5.86c0,1.77,1.17,3.35,3.5,4.77c2.33,1.41,5.25,2.78,8.76,4.1c3.51,1.32,5.99,2.5,7.45,3.53
			c1.46,1.04,2.19,2.33,2.19,3.88c0,0.9-0.26,1.79-0.78,2.68c0.14,0.52,0.21,0.99,0.21,1.41c0,2.5-1.12,5.38-3.35,8.65
			c-2.24,3.27-4.51,5.45-6.81,6.53c-10.07,0-15.11-2.82-15.11-8.47c0-1.84,0.5-3.35,1.52-4.55c1.01-1.2,2.33-1.8,3.95-1.8
			s2.91,0.48,3.85,1.45c0.94,0.97,1.41,2.22,1.41,3.78c0,0.56-0.12,1.13-0.35,1.69l-0.78-0.28c0.14-0.47,0.21-0.94,0.21-1.41
			c0-1.32-0.39-2.38-1.17-3.18c-0.78-0.8-1.85-1.2-3.21-1.2c-1.37,0-2.45,0.52-3.25,1.55c-0.8,1.04-1.2,2.33-1.2,3.88
			c0,1.55,0.39,2.86,1.17,3.92c0.78,1.06,1.89,1.85,3.35,2.37c2.64,0.94,5.74,1.41,9.32,1.41c2.31-1.13,4.46-3.21,6.46-6.25
			c2-3.04,3-5.61,3-7.73s-1.15-3.86-3.46-5.23c-2.31-1.36-5.23-2.71-8.76-4.02c-3.53-1.32-5.98-2.49-7.34-3.53
			c-1.37-1.03-2.28-2.07-2.75-3.11l0.71-0.49c0.71,1.27,1.62,2.31,2.75,3.11c1.13,0.8,3.18,1.77,6.14,2.9s5.66,2.31,8.08,3.53
			c2.42,1.22,4.06,2.57,4.91,4.02C293.05,252.72,293.15,252.17,293.15,251.61z"/>
		<path stroke="#A7732A" stroke-miterlimit="10" d="M300.82,242.41v-0.66h5.93l0.18-6.89h0.78l-0.18,6.89h9.64v0.66h-9.64
			l-0.36,18.45c0,0.12,0,0.24,0,0.36c0,4.47,1.42,7.43,4.25,8.86c2.47-1.16,4.59-2.69,6.35-4.61l0.48,0.42
			c-1.72,1.96-4.01,3.59-6.89,4.91c-3.31-1.48-4.97-4.61-4.97-9.4c0-0.2,0-0.38,0-0.54l0.36-18.45H300.82z"/>
		<path stroke="#A7732A" stroke-miterlimit="10" d="M335.02,270.68c-4.07,0-7.04-1.37-8.89-4.1c-1.86-2.73-2.79-6.4-2.79-10.99
			c0-5.47,1.62-10.16,4.85-14.07c1.28-0.28,2.58-0.42,3.89-0.42c4.11,0,7.09,1.19,8.92,3.56c1.84,2.38,2.75,5.82,2.75,10.33
			c0,6.27-1.62,11.36-4.85,15.27C337.63,270.54,336.34,270.68,335.02,270.68z M335.2,270.02c1.16,0,2.28-0.12,3.35-0.36
			c2.95-3.75,4.43-8.62,4.43-14.61c0-4.35-0.86-7.66-2.58-9.91c-1.72-2.25-4.55-3.38-8.5-3.38c-1.16,0-2.28,0.12-3.35,0.36
			c-2.96,3.63-4.43,8.11-4.43,13.42C324.12,265.19,327.81,270.02,335.2,270.02z"/>
		<path stroke="#A7732A" stroke-miterlimit="10" d="M358.2,265.88c0,2.72,1.72,4.07,5.15,4.07c0.72,0,1.52-0.1,2.4-0.3l0.12,0.54
			c-0.72,0.28-1.68,0.42-2.88,0.42c-1.2,0-2.32-0.26-3.35-0.78c-1.04-0.52-1.66-1.3-1.86-2.34c-0.2,1.04-0.81,1.82-1.83,2.34
			c-1.02,0.52-2.13,0.78-3.32,0.78c-1.2,0-2.16-0.14-2.88-0.42l0.12-0.54c0.88,0.2,1.68,0.3,2.4,0.3c3.43,0,5.15-1.36,5.15-4.07
			v-16.23c0-5.31-1.72-7.96-5.15-7.96c-1.04,0-1.82,0.16-2.34,0.48l-0.36-0.42c0.6-0.48,1.56-0.72,2.88-0.72
			c3.83,0,5.75,2.87,5.75,8.62v1.44c2.2-5.19,5.37-8.6,9.52-10.24c1.44,1.64,2.16,4.09,2.16,7.37c0,0.2,0,0.38,0,0.54h-0.78
			c0-0.2,0-0.4,0-0.6c0-2.83-0.56-4.99-1.68-6.47c-2.16,1-3.9,2.37-5.24,4.1s-2.67,3.98-3.98,6.74V265.88z"/>
		<path stroke="#A7732A" stroke-miterlimit="10" d="M377.48,265.65c-1.52-2.48-2.28-5.23-2.28-8.26c0-3.03,0.66-6.06,1.98-9.07
			c1.32-3.01,3.11-5.5,5.39-7.46c6.91,0,10.36,2.36,10.36,7.07c0,1.52-0.28,3.02-0.84,4.49c1.12-0.04,2.48-0.06,4.07-0.06v0.6
			c-0.4,0-0.78,0-1.14,0c-5.67,0-11.94,0.54-18.8,1.62c-0.12,1.04-0.18,2.02-0.18,2.93c0,2.8,0.68,5.34,2.04,7.64
			c1.36,2.3,3.27,3.9,5.75,4.82c1.48-0.6,2.97-1.47,4.49-2.61c1.52-1.14,2.75-2.34,3.71-3.62l0.54,0.36c-1,1.32-2.33,2.6-3.98,3.86
			c-1.66,1.26-3.28,2.21-4.88,2.84C381.07,269.84,379,268.12,377.48,265.65z M392.15,247.92c0-4.27-3.11-6.41-9.34-6.41
			c-3.39,2.91-5.55,7.03-6.47,12.34c4.35-0.72,9.38-1.2,15.09-1.44C391.91,250.85,392.15,249.36,392.15,247.92z"/>
		<path stroke="#A7732A" stroke-miterlimit="10" d="M405.86,241.75h9.64v0.66h-9.64l0.48,30.48c0,0.12,0,0.24,0,0.36
			c0,4.83-1.62,8-4.85,9.52c-2.48,0-4.81-0.66-7.01-1.98l0.3-0.54c2.28,1.24,4.45,1.86,6.53,1.86c2.83-1.44,4.25-4.39,4.25-8.86
			c0-0.12,0-0.24,0-0.36l-0.48-30.48h-5.93v-0.66h5.93c0-2.83,0.42-5.58,1.26-8.23c0.84-2.65,2.13-4.72,3.89-6.2
			c2.83,0,5.47,0.7,7.91,2.1l-0.36,0.54c-2.4-1.32-4.85-1.98-7.37-1.98C407.38,230.73,405.86,235.32,405.86,241.75z"/>
		<path stroke="#A7732A" stroke-miterlimit="10" d="M426.05,265.88c0,2.72,1.72,4.07,5.15,4.07c0.72,0,1.52-0.1,2.4-0.3l0.12,0.54
			c-0.72,0.28-1.68,0.42-2.88,0.42c-1.2,0-2.32-0.26-3.35-0.78c-1.04-0.52-1.66-1.3-1.86-2.34c-0.2,1.04-0.81,1.82-1.83,2.34
			c-1.02,0.52-2.13,0.78-3.32,0.78c-1.2,0-2.16-0.14-2.88-0.42l0.12-0.54c0.88,0.2,1.68,0.3,2.4,0.3c3.43,0,5.15-1.36,5.15-4.07
			v-16.23c0-5.31-1.72-7.96-5.15-7.96c-1.04,0-1.82,0.16-2.34,0.48l-0.36-0.42c0.6-0.48,1.56-0.72,2.88-0.72
			c3.83,0,5.75,2.87,5.75,8.62v1.44c2.2-5.19,5.37-8.6,9.52-10.24c1.44,1.64,2.16,4.09,2.16,7.37c0,0.2,0,0.38,0,0.54h-0.78
			c0-0.2,0-0.4,0-0.6c0-2.83-0.56-4.99-1.68-6.47c-2.16,1-3.9,2.37-5.24,4.1s-2.67,3.98-3.98,6.74V265.88z"/>
		<path stroke="#A7732A" stroke-miterlimit="10" d="M454.79,270.68c-4.07,0-7.04-1.37-8.89-4.1c-1.86-2.73-2.79-6.4-2.79-10.99
			c0-5.47,1.62-10.16,4.85-14.07c1.28-0.28,2.58-0.42,3.89-0.42c4.11,0,7.09,1.19,8.92,3.56c1.84,2.38,2.75,5.82,2.75,10.33
			c0,6.27-1.62,11.36-4.85,15.27C457.41,270.54,456.11,270.68,454.79,270.68z M454.97,270.02c1.16,0,2.28-0.12,3.35-0.36
			c2.95-3.75,4.43-8.62,4.43-14.61c0-4.35-0.86-7.66-2.58-9.91c-1.72-2.25-4.55-3.38-8.5-3.38c-1.16,0-2.28,0.12-3.35,0.36
			c-2.96,3.63-4.43,8.11-4.43,13.42C443.89,265.19,447.58,270.02,454.97,270.02z"/>
		<path stroke="#A7732A" stroke-miterlimit="10" d="M493.96,250.07c0-4.23-1.42-7.07-4.25-8.5c-2.32,1.04-4.52,2.53-6.62,4.46
			c-2.1,1.94-3.8,4.06-5.12,6.38v13.47c0,2.72,1.72,4.07,5.15,4.07c0.72,0,1.52-0.1,2.4-0.3l0.12,0.54
			c-0.72,0.28-1.68,0.42-2.88,0.42c-1.2,0-2.32-0.26-3.35-0.78c-1.04-0.52-1.66-1.3-1.86-2.34c-0.2,1.04-0.81,1.82-1.83,2.34
			c-1.02,0.52-2.13,0.78-3.32,0.78c-1.2,0-2.16-0.14-2.88-0.42l0.12-0.54c0.88,0.2,1.68,0.3,2.4,0.3c3.43,0,5.15-1.36,5.15-4.07
			v-16.23c0-5.31-1.72-7.96-5.15-7.96c-1.04,0-1.82,0.16-2.34,0.48l-0.36-0.42c0.6-0.48,1.56-0.72,2.88-0.72
			c3.83,0,5.75,2.87,5.75,8.62v1.62c1.36-2.36,3.09-4.43,5.21-6.23c2.12-1.8,4.31-3.19,6.59-4.19c3.31,1.48,4.97,4.61,4.97,9.4
			c0,0.2,0,0.38,0,0.54l-0.3,12.52c0,0.28,0,0.56,0,0.84c0,1.96,0.27,3.44,0.81,4.46c0.54,1.02,1.79,1.53,3.74,1.53
			c1.04,0,1.82-0.16,2.34-0.48l0.36,0.42c-0.6,0.48-1.56,0.72-2.88,0.72c-2.16,0-3.55-0.57-4.19-1.71c-0.64-1.14-0.96-2.8-0.96-5
			c0-0.24,0-0.5,0-0.78l0.3-12.52C493.96,250.55,493.96,250.31,493.96,250.07z"/>
		<path stroke="#A7732A" stroke-miterlimit="10" d="M503.72,242.41v-0.66h5.93l0.18-6.89h0.78l-0.18,6.89h9.64v0.66h-9.64
			l-0.36,18.45c0,0.12,0,0.24,0,0.36c0,4.47,1.42,7.43,4.25,8.86c2.47-1.16,4.59-2.69,6.35-4.61l0.48,0.42
			c-1.72,1.96-4.01,3.59-6.89,4.91c-3.31-1.48-4.97-4.61-4.97-9.4c0-0.2,0-0.38,0-0.54l0.36-18.45H503.72z"/>
	</g>
</g>
</svg>
