<?xml version="1.0" encoding="utf-8"?>
<!-- Generator: Adobe Adobe Illustrator 24.2.0, SVG Export Plug-In . SVG Version: 6.00 Build 0)  -->
<svg version="1.1" id="Layer_1" xmlns="http://www.w3.org/2000/svg" xmlns:xlink="http://www.w3.org/1999/xlink" x="0px" y="0px"
	 width="612px" height="792px" viewBox="0 0 612 792" style="enable-background:new 0 0 612 792;" xml:space="preserve">
<style type="text/css">
	.st0{fill:none;stroke:#EFC93F;stroke-width:2;stroke-miterlimit:10;}
	.st1{stroke:#E29938;stroke-miterlimit:10;}
	.st2{font-family:'AlmendraDisplay cursive';}
	.st3{font-size:59.8878px;}
	.st4{font-size:70.6115px;}
	.st5{fill:none;stroke:#EFC93F;stroke-miterlimit:10;}
</style>
<g>
	<path class="st0" d="M220.26,279.39c1.3-4.03,2.85-7.99,4.65-11.84"/>
	<path class="st0" d="M236.27,267.98c5.23,3.17,10.29,6.62,15.13,10.32"/>
	<path class="st0" d="M232.36,271.21c-0.48-0.14-1.03,0.02-1.35,0.38c-0.16,0.19-0.26,0.42-0.31,0.65c-0.16,0.84,0.51,1.76,1.4,1.87
		c0.89,0.11,1.79-0.66,1.75-1.52S232.78,271.06,232.36,271.21z"/>
	<path class="st0" d="M232,271.13c2.42-3.52,4.1-7.5,4.94-11.63"/>
	<path class="st0" d="M233.36,272.15c2.92-4.53,4.85-9.64,5.63-14.91"/>
	<path class="st0" d="M236.79,260.42c0.72-3.67,1.32-7.38,1.25-11.12s-0.85-7.51-2.72-10.78"/>
	<path class="st0" d="M238.82,257.86c2.09-7.88,0.65-16.55-3.88-23.42"/>
	<path class="st0" d="M208.14,264.04c0.18-6.19,0.41-12.56,3.01-18.22c0.81-1.77,1.84-3.43,2.93-5.06c1.77-2.64,3.89-5.33,6.96-6.42
		c0.05-0.09,0.1-0.18,0.15-0.27"/>
	<path class="st0" d="M220.96,234.45c2.4-1.66,5.69-1.97,8.47-0.99c2.78,0.98,5.02,3.17,6.21,5.77"/>
	<path class="st0" d="M235.14,235.03c-1.69-1.9-4.02-3.25-6.55-3.81c-2.53-0.56-5.25-0.31-7.63,0.69c0,0,0.06-0.08,0.09-0.1
		c-3.33,2.32-6.73,4.72-9.01,8.01c-1.27,1.84-2.14,3.9-2.88,5.99c-2.11,5.96-3.2,12.33-2.41,18.58"/>
	<path class="st0" d="M250.93,278.07c-10.16-0.24-20.34,0.01-30.47,0.74"/>
	<path class="st0" d="M188.26,268.97c10.91,2.66,21.62,6.07,32.02,10.18"/>
	<path class="st0" d="M210.24,263.64c-7.52,1.4-14.97,3.16-22.3,5.28"/>
	<path class="st0" d="M209.19,263.58c4.92,1.71,9.97,3.08,14.91,4.45c3.14-0.61,6.3-1.06,9.49-1.35"/>
	<path class="st0" d="M233.41,266.94c0.18-1.42,0.28-2.86-0.23-4.46c-7.32-1-14.63-2-22.41-2.68c0.06,1.39-0.15,2.79-0.62,4.1"/>
	<path class="st0" d="M245.78,278.75c-3.3,14.07-6.04,28.26-8.08,42.55c0.01,0.03,0.03,0.05,0.04,0.08"/>
	<path class="st0" d="M224.14,279.2c-3.11,15.25-5.83,30.56-8.09,45.94c0.01-0.02,0.01-0.04,0.02-0.06"/>
	<path class="st0" d="M216.08,325.37c7.06-1.72,14.21-3.06,21.42-4.03"/>
	<path class="st0" d="M220.19,318.68c4.68-0.55,9.37-1.11,14.05-1.66"/>
	<path class="st0" d="M220.45,318.69c2.29-11.72,4.3-23.49,6.03-35.29c4.74-0.79,9.63-1.13,14.27-1.07
		c-0.97,11.87-5.27,23.3-6.4,35.16"/>
	<path class="st0" d="M221.81,312.61c1.11-0.81,2.21-1.62,3.17-2.3c0.06,2.63-0.12,5.27-0.54,7.87"/>
	<path class="st0" d="M224.76,309.8c-0.92,0.01-1.84-0.06-2.74-0.21"/>
	<path class="st0" d="M209.58,307.7c-2.8,0.12-5.62-0.12-8.35-0.73"/>
	<path class="st0" d="M209.21,311.3c-2.58-1.69-5.32-3.15-8.21-4.35c-0.89,2.63-1.78,5.25-2.67,7.88"/>
	<path class="st0" d="M220.25,279.35c-2.97,15.05-5.93,30.1-8.9,45.14"/>
	<path class="st0" d="M221.72,279.08c-0.39,3.57-1.07,7.11-1.75,10.64c-2.29,11.89-4.59,23.78-6.88,35.68"/>
	<path class="st0" d="M217.68,325.04c-1.39,0.29-2.81,0.45-4.24,0.49c-9.56-2.93-18.71-5.92-28.28-9.12
		c0.45-1.39,0.79-2.82,1.02-4.26c0.01-0.02,0.01-0.04,0.02-0.06"/>
	<path class="st0" d="M196.65,276.03c6.39,1.31,12.7,2.97,18.9,4.97"/>
	<path class="st0" d="M207.8,317.97c2.67-12.28,5.34-24.57,8.01-36.85"/>
	<path class="st0" d="M208.15,317.8c-5.92-1.73-11.84-3.47-17.57-4.76c2.01-12.42,4.02-24.84,6.04-37.26"/>
	<path class="st0" d="M196.34,275.69c-6.63-1.17-13.26-2.35-20.27-3.29c-1.95,12.78-3.76,25.59-5.67,38.65
		c7.02,0.09,14.03,0.47,21.01,1.14"/>
	<path class="st0" d="M193.2,277.65c-1.94,10.66-3.89,21.32-5.83,31.98"/>
	<path class="st0" d="M193.25,277.4c-4.98-0.85-9.99-1.59-15.12-2.1c-2.01,10.88-3.5,21.84-4.48,32.84
		c4.73,0.39,9.46,0.77,14.19,1.16"/>
	<path class="st0" d="M175.83,290.08c0.44,0.08,0.89,0.17,1.33,0.25c0.13,0.02,0.26,0.05,0.34,0.15c0.1,0.11,0.09,0.28,0.08,0.43
		c-0.3,2.96-0.61,5.96-1.62,8.78c-0.48-0.03-0.96-0.06-1.43-0.09"/>
	<path class="st0" d="M175.51,292.31c0.4,0.1,0.76,0.35,0.98,0.69c-0.35,1.4-0.61,2.82-0.77,4.25c-0.31,0.01-0.62,0.03-0.94,0.04"/>
	<path class="st0" d="M194.63,271.47c-0.31,1.52-0.63,3.04-0.94,4.56"/>
</g>
<g>
	<path class="st0" d="M156.47,213.1c0.2,8.58,0.39,17.16,0.59,25.74c5.17,1.06,9.92,5.3,11.9,10.63c1.98,5.32,1.2,11.56-1.9,16.32
		c-0.64,0.99-1.38,1.91-2.27,2.69c-1.25,1.09-2.76,1.84-4.31,2.44c-3.26,1.27-6.84,1.94-10.28,1.29c-2.38-0.45-4.63-1.54-6.58-2.98
		c-5.18-3.83-8.28-10.47-7.44-16.86s5.79-12.15,11.77-13.11c0.04-8.44,0.08-16.88,0.12-25.32"/>
	<path class="st0" d="M148.43,206.8c-1.25,0.3-2.46,0.76-3.58,1.38c-1.02,0.56-2.1,1.52-1.9,2.66c0.21,1.17,1.58,1.69,2.75,1.91
		c3.18,0.59,6.45,0.58,9.68,0.45c2.05-0.08,4.39-0.37,5.54-2.07c0.61-0.9,0.69-2.26-0.11-2.99c-0.28-0.25-0.63-0.41-0.98-0.54
		c-1.14-0.44-2.33-0.73-3.53-0.87"/>
	<path class="st0" d="M154.25,210.51c1.36-3.14,2.73-6.28,4.09-9.42"/>
	<path class="st0" d="M158.69,201.19c-1.45-4.19-3.51-8.16-6.18-11.57c-2.81,3.86-5.03,8.15-6.46,12.47
		c1.03,2.77,2.24,5.47,3.63,8.08"/>
	<path class="st0" d="M154.39,210.26c-1.77,0.06-3.53,0.13-5.3,0.19"/>
	<path class="st0" d="M152.42,189.77c0.03,3.75,0.07,7.5,0.24,10.52c-1.06,1.04-2.03,2.18-2.82,3.29c-1.34-0.23-2.64-0.7-3.82-1.38"
		/>
	<path class="st0" d="M152.82,200.77c0.66,1.07,1.44,2.08,2.38,3.12c1.31-0.97,2.56-2,3.76-3.1"/>
	<path class="st0" d="M155.38,203.75c-1.11,2.19-2.13,4.43-3.05,6.71"/>
	<path class="st0" d="M149.84,203.92c0.82,2.3,1.52,4.65,2.08,7.03L149.84,203.92z"/>
	<path class="st0" d="M168.32,250.21c-1.03-0.48-2.32,0.06-3.02,0.96c-0.7,0.9-0.96,2.06-1.16,3.19c-0.46,2.49-0.79,5.06-2,7.28
		c-1.21,2.22-3.55,4.05-6.06,3.79c-3.01-0.3-4.98-3.31-5.95-6.17c-0.97-2.86-1.48-6.04-3.49-8.29"/>
	<path class="st0" d="M163.86,255.34c-1.48,1.32-3.76,1.43-5.59,0.67c-1.82-0.77-3.24-2.28-4.34-3.93c-1.1-1.65-1.93-3.45-2.96-5.15
		c-0.86-1.42-1.89-2.79-3.31-3.65c-1.42-0.86-3.28-1.13-4.73-0.32c-0.71,0.4-1.32,1.12-1.3,1.93c0.02,0.83,0.65,1.5,1.25,2.08
		c1.56,1.53,3.11,3.05,4.67,4.58"/>
	<path class="st0" d="M160.99,247.88c-0.38-0.61-0.79-1.24-1.44-1.55c-0.65-0.31-1.59-0.11-1.81,0.57
		c-0.18,0.55,0.17,1.14,0.58,1.56c0.43,0.44,0.93,0.82,1.29,1.32s0.53,1.2,0.23,1.73C161.04,250.49,161.36,248.47,160.99,247.88z"/>
	<path class="st0" d="M143.85,249.9c-0.22,0.45-0.83,0.76-0.74,1.25c0.07,0.41,0.58,0.55,1,0.55c0.16,0,0.32-0.02,0.46-0.08
		c0.42-0.2,0.47-0.85,0.16-1.2C144.43,250.06,143.89,249.99,143.85,249.9z"/>
	<path class="st0" d="M147.02,266.21c-0.27-0.1-0.55-0.21-0.84-0.22s-0.6,0.08-0.79,0.31c-0.2,0.24-0.2,0.59-0.18,0.9
		c0.05,0.52,0.18,1.05,0.47,1.49c0.29,0.44,0.77,0.77,1.29,0.82c0.52,0.04,1.08-0.25,1.27-0.75c0.1-0.27,0.09-0.56,0.03-0.84
		C148.08,267.07,147.43,266.37,147.02,266.21z"/>
	<path class="st0" d="M149.55,262.92c-0.25,0-0.5,0.01-0.74,0.09c-0.23,0.08-0.45,0.27-0.51,0.51c-0.1,0.44,0.32,0.82,0.73,1
		c0.22,0.1,0.46,0.18,0.69,0.12c0.4-0.1,0.58-0.61,0.45-1C150.05,263.26,149.71,262.98,149.55,262.92z"/>
	<path class="st0" d="M148.52,256.89c-0.33,0.02-0.65,0.09-0.95,0.21c0.03,0.26,0.09,0.52,0.23,0.74s0.41,0.37,0.67,0.31
		c0.32-0.07,0.5-0.48,0.39-0.79C148.75,257.06,148.41,256.86,148.52,256.89z"/>
</g>
<g>
	<path class="st0" d="M446.19,68.28c-9.97,13.83-20.17,27.53-30.42,40.99c-6.29,8.67-12.58,17.34-18.9,26.1
		c-6.12,8.24-12.1,16.57-17.42,24.07c-5.61,8.05-11.47,15.97-17.57,23.74"/>
	<path class="st0" d="M356.19,179.17c2.1,1.2,4.07,2.58,5.89,4.11"/>
	<path class="st0" d="M445.85,68.6c-1.87,0.14-3.7,0.62-5.17,1.8c-8.9,11.13-17.6,22.37-25.72,33.38
		c-7.32,9.88-15.01,19.53-22.86,29.2c-6.84,8.49-13.53,17.06-20.07,26c-5.66,6.51-10.94,13.27-15.81,20.27"/>
	<path class="st0" d="M371.2,159.11c1.72,0.58,3.55,0.9,5.38,0.93c0.96,0.02,1.93-0.04,2.86-0.27c1.3-0.32,2.47-0.96,3.61-1.59
		c0.65-0.35,1.3-0.71,1.81-1.22c0.53-0.53,0.87-1.2,1.19-1.85c0.95-1.95,1.86-4.13,1.18-6.17"/>
	<path class="st0" d="M385.24,141.33c-0.26-1.9-0.21-3.89,0.61-5.66c0.82-1.77,2.52-3.3,4.62-3.64c3.87-0.64,7.33,2.67,11.26,2.63
		c0.34,0,0.72-0.04,0.96-0.26c0.24-0.21,0.29-0.54,0.31-0.84c0.12-1.74-0.23-3.49-1.01-5.09"/>
	<path class="st0" d="M401.08,121.63c0-1.49,0-2.99,0.33-4.44s1.01-2.89,2.2-3.93c1.19-1.04,2.93-1.63,4.55-1.31"/>
	<path class="st0" d="M414.21,112.51c1.33-0.26,2.44-1.24,2.76-2.42c0.39-1.46-0.37-2.95-1.05-4.32c-0.63-1.29-1.2-2.62-1.35-4.02
		c-0.15-1.4,0.18-2.89,1.19-3.96c1.09-1.17,2.95-1.72,4.61-1.36"/>
	<path class="st0" d="M425.03,97.68c1.36-0.53,2.92-1.27,3.12-2.59c0.13-0.86-0.37-1.67-0.8-2.45c-0.49-0.88-0.9-1.79-1.23-2.72
		c-0.38-1.09-0.65-2.27-0.28-3.36c0.52-1.52,2.37-2.57,4.12-2.34"/>
	<path class="st0" d="M428.46,94.95c-0.16-1.67,1.4-3.33,3.27-3.46C431.83,93.36,430.26,95.19,428.46,94.95z"/>
	<path class="st0" d="M428.25,95.53c-0.12,0.65,0.46,1.34,1.2,1.4c0.54,0.05,1.06-0.2,1.6-0.19"/>
	<path class="st0" d="M431,96.78c-0.01-0.71-0.66-1.36-1.45-1.47c-0.31-0.06-0.62-0.12-0.93-0.18l0.19,0.09"/>
	<path class="st0" d="M417.82,96.54c-0.62-0.48-0.84-1.28-0.77-2.01s0.41-1.42,0.58-1.9c0.24,0.44,0.53,0.86,0.74,1.31
		c0.21,0.45,0.34,0.95,0.25,1.43C418.52,95.85,418.18,96.29,417.82,96.54z"/>
	<path class="st0" d="M417.07,95.85c-0.64-0.36-1.45-0.31-2.2-0.2C415.15,96.39,416.02,96.93,417.07,95.85z"/>
	<path class="st0" d="M405.39,111.78c-0.31-0.14-0.63-0.28-0.85-0.52c-0.36-0.38-0.41-0.92-0.39-1.42c0.04-1.18,0.38-2.35,0.99-3.41
		c0.74,0.75,1.17,1.74,1.21,2.73S406.03,111.18,405.39,111.78z"/>
	<path class="st0" d="M414.42,112.47c-0.25,0.06-0.5,0.11-0.75,0.17"/>
	<path class="st0" d="M402.63,129.75c-0.2-0.45-0.11-0.97,0.13-1.4c0.24-0.43,0.63-0.78,1.05-1.09c0.82-0.6,1.77-1.04,2.79-1.31
		c0.57-0.15,1.18-0.24,1.67-0.55c-0.35,0.8-0.71,1.6-1.24,2.32c-0.53,0.72-1.23,1.36-2.11,1.7
		C404.19,129.71,403.37,129.79,402.63,129.75z"/>
	<path class="st0" d="M387.29,133.24c0.56-0.47,0.84-1.16,0.91-1.84s-0.04-1.37-0.18-2.05c-0.09-0.42-0.18-0.84-0.39-1.23
		c-0.2-0.39-0.53-0.74-0.96-0.91c-0.6,1.59-0.82,3.37-0.1,4.91C386.78,132.59,387.1,133.04,387.29,133.24z"/>
	<path class="st0" d="M384.52,157.71c1.92,1.18,3.02,3.34,2.76,5.41c-0.94-0.51-1.67-1.3-2.15-2.19c-0.48-0.88-0.73-1.86-0.85-2.84
		C384.26,157.89,384.31,157.58,384.52,157.71z"/>
	<path class="st0" d="M386.15,155.79c-0.21,0.21-0.47,0.4-0.54,0.68c-0.07,0.28,0.09,0.58,0.34,0.77c0.25,0.19,0.57,0.28,0.89,0.34
		c1.24,0.24,2.55,0.08,3.74-0.32c1.19-0.4,2.27-1.03,3.27-1.73c-0.72-0.36-1.46-0.73-2.27-0.86c-0.68-0.11-1.38-0.04-2.06,0.09
		C388.21,155.01,386.72,155.21,386.15,155.79z"/>
</g>
<g>
	<path class="st0" d="M575.3,313.46c-13.89,0.57-27.78,0.89-41.81,0.94c-1.22,1.6-2.45,3.19-3.67,4.82
		c0.68,5.65,1.28,11.32,1.79,16.99"/>
	<path class="st0" d="M531.23,336.08c3.17,0.47,6.36-0.37,9.54-0.76c1.72-0.21,3.45-0.29,5.18-0.37c11.05-0.51,22.1-0.97,33.02-1.18
		c0.66-5.74,0.63-11.56-0.06-17.03c-1.11-1.13-2.22-2.27-3.33-3.4c-0.36,0.15-0.76,0.2-1.14,0.12"/>
	<path class="st0" d="M578.62,333.86c-0.91,1.22-1.87,2.4-2.87,3.55"/>
	<path class="st0" d="M531.8,336.44c0.86,0.96,1.71,1.92,2.51,2.63c6.2-0.14,12.41-0.28,18.13-0.67c6.17-0.23,12.35-0.45,18.52-0.68
		c1.68-0.06,3.37-0.12,5.05-0.29"/>
	<path class="st0" d="M536.87,342.34c1.71-0.17,3.43-0.26,5.14-0.35c10.31-0.52,20.62-1.03,30.94-1.28"/>
	<path class="st0" d="M575.46,337.69c-0.88,1.08-1.82,2.1-2.83,3.06"/>
	<path class="st0" d="M570.62,343.4c-10.46,0.14-20.93,0.28-31.33,1.31"/>
	<path class="st0" d="M572.63,340.92c-0.6,0.9-1.24,1.76-1.93,2.59"/>
	<path class="st0" d="M539.79,344.75c-1-0.79-1.96-1.63-2.88-2.51"/>
	<path class="st0" d="M533.96,338.97c1.29,1.13,2.48,2.38,3.54,3.73"/>
	<path class="st0" d="M574.13,271.45c-0.03,14.09-0.06,28.17-0.09,42.26"/>
	<path class="st0" d="M536.39,282.39c3.81-3.8,7.79-7.42,11.92-10.86"/>
	<path class="st0" d="M536.9,299.42c4.43,4.43,8.51,9.21,12.24,14.24c0.09,0.14,0.17,0.27,0.26,0.41"/>
	<path class="st0" d="M574.23,279.52c2.47-0.31,4.98-0.3,7.28,0.04c-0.27,7.7-0.43,15.4-0.36,23.08c-2.43-0.27-4.9-0.2-7.31,0.22"/>
	<path class="st0" d="M579.23,267.03c-1.19,1.5-2.42,2.97-3.67,4.41"/>
	<path class="st0" d="M530.3,266.91c1.9,1.66,3.8,3.33,5.71,4.99"/>
	<path class="st0" d="M529.56,250.74c0,5.47,0.33,10.93,1,16.36"/>
	<path class="st0" d="M578.04,249.28c0.4,6.02,0.67,12.05,0.82,18.07"/>
	<path class="st0" d="M575.71,271.37c-13.47,0.13-26.94,0.22-40.41,0.28"/>
	<path class="st0" d="M577.58,249.53c-16.04,0.24-32.08,0.75-48.1,1.53"/>
	<path class="st0" d="M531.76,248.05c6.56-0.16,13.11-0.31,19.1-0.56c8.26,0.13,16.52-0.1,24.76-0.68"/>
	<path class="st0" d="M573.42,243.86c-7.08-0.09-14.17,0.02-21.25,0.32"/>
	<path class="st0" d="M535,244.53c5.9-0.19,11.81-0.28,17.71-0.29"/>
	<path class="st0" d="M538.57,240.51c-2.9,3.51-5.97,6.88-9.19,10.1"/>
	<path class="st0" d="M578.28,249.34c-3.14-3.09-6.19-6.27-9.01-9.57c-10.46,0.16-20.91,0.5-31.36,1.04"/>
	<path class="st0" d="M520.78,301.8c5.37-0.48,10.74-0.97,16.12-1.45c-0.19-2.83-0.44-5.69-0.45-8.55
		c-0.01-3.28,0.29-6.57-0.15-9.73c-5.43-0.65-10.92-0.86-16.19-0.47C521.05,288.36,520.28,295.25,520.78,301.8z"/>
	<path class="st0" d="M499.03,297.16c7.2-0.17,14.41-0.34,21.61-0.51"/>
	<path class="st0" d="M498.47,286.91c7.31,0.33,14.63,0.44,21.95,0.34"/>
	<path class="st0" d="M489.73,299.22c3.08-0.29,6.16-0.42,9.25-0.39c-0.27-4.65-0.47-9.37-0.74-14.1c-3.2-0.1-6.41-0.09-9.38-0.05
		C489.11,289.62,489.36,294.56,489.73,299.22z"/>
	<path class="st0" d="M489.1,296.53c-10.8,0.04-21.6,0.08-32.4,0.13"/>
	<path class="st0" d="M488.5,286.6c-10.68-0.25-21.37,0.06-32.08,0.87c0.13,2.8,0.26,5.6,0.4,8.4c0.01,0.26,0.03,0.53,0.13,0.76"/>
	<path class="st0" d="M440.25,295.41c5.49-0.39,11.01-0.44,16.51-0.14"/>
	<path class="st0" d="M439.9,287.88c5.47,0.28,10.93,0.56,16.4,0.83"/>
	<path class="st0" d="M432.59,298.62c2.55,0.26,5.13,0.32,7.69,0.19c0.31-4.57,0.28-9.29-0.11-13.97c-2.8-0.31-5.64-0.23-8.63,0.09
		c0.28,4.48,0.55,8.95,0.83,13.43C432.39,298.53,432.58,298.75,432.59,298.62z"/>
	<path class="st0" d="M431.48,287.6c-9.45-0.06-18.89-0.01-28.34,0.13"/>
	<path class="st0" d="M398.77,298.05c11.21-0.26,22.42-0.46,33.64-0.6"/>
	<path class="st0" d="M313.36,298.96c1.89-0.26,3.8-0.28,5.71-0.29c8.41-0.05,16.82-0.1,25.23-0.15"/>
	<path class="st0" d="M399.19,298.1c-11.75-0.24-23.51-0.16-35.05,0.43c-7.14,0.06-14.28,0.11-21.42,0.17"/>
	<path class="st0" d="M403.46,287.7c-12.69-0.03-25.38-0.06-38.23-0.22c-10.18,0.17-20.35,0.34-30.3,0.51
		c-7.56,0.24-15.12,0.35-22.89,0.51c-1.12-1.56-3.17-2.27-5.09-2.14c-1.92,0.13-3.72,0.98-5.34,2.02c-1.12,0.71-2.21,1.56-2.82,2.75
		c-0.5,0.98-0.62,2.11-0.55,3.2c0.18,2.83,1.67,5.58,4.03,7.17c2.35,1.59,5.53,1.93,8.12,0.75c2.59-1.17,4.45-3.86,4.52-6.7
		c0.07-2.87-1.55-5.5-3.4-7.69"/>
	<path class="st0" d="M335.41,287.91c-4.12,2.44-7.38,6.28-9.12,10.74"/>
	<path class="st0" d="M342.96,287.85c-3.58,3.04-6.6,6.74-8.84,10.86"/>
	<path class="st0" d="M350.63,287.85c-3.72,2.98-6.9,6.63-9.33,10.73"/>
	<path class="st0" d="M359.78,287.45c-4.19,2.87-7.7,6.72-10.15,11.16"/>
	<path class="st0" d="M366.75,287.35c-4.3,2.86-7.93,6.72-10.52,11.18"/>
	<path class="st0" d="M374.51,287.67c-4.51,2.68-8.36,6.47-11.11,10.94"/>
	<path class="st0" d="M382.47,287.49c-4.4,2.6-7.6,6.79-10.67,10.87"/>
	<path class="st0" d="M389.16,287.61c-3.86,2.87-7.17,6.48-9.68,10.59"/>
	<path class="st0" d="M396.48,287.53c-3.88,2.74-7.05,6.47-9.14,10.74"/>
	<path class="st0" d="M403.89,287.77c-3.83,2.64-6.97,6.26-9.05,10.42"/>
	<path class="st0" d="M410.68,287.7c-3.41,2.93-6.29,6.47-8.46,10.41"/>
	<path class="st0" d="M417.86,287.77c-3.09,3.02-5.74,6.49-7.83,10.27"/>
</g>
<g>
	<path class="st0" d="M50.18,278.48c-1.47-1.13-2.99-2.2-5.13-3.42c0.76-1.21,1.77-2.27,2.94-3.1c0.59-0.42,1.43-0.78,2-0.33
		c0.36,0.27,0.47,0.76,0.52,1.21c0.3,2.52-0.44,5.05-1.39,7.4c-1.13,2.81-3.05,5.86-6.07,6.12c-0.44,0.04-0.9,0.01-1.27-0.21
		c-0.41-0.24-0.67-0.68-0.86-1.12c-0.84-1.91-0.73-4.09-0.4-6.15c1-6.08,3.96-11.82,8.34-16.15c0.87-0.86,1.82-1.68,2.95-2.15
		c1.13-0.46,2.49-0.51,3.54,0.12c1.07,0.65,1.65,1.92,1.74,3.17c0.09,1.25-0.26,2.49-0.68,3.66"/>
	<path class="st0" d="M56.68,265.61c-1.08,8.8-4.27,17.33-9.23,24.67c-0.82,1.22-1.7,2.41-2.8,3.39c-1.15,1.02-2.75,1.81-4.19,1.28
		c-1.06-0.39-1.78-1.44-2.08-2.53s-0.23-2.25-0.21-3.38c2.51,1.12,4.87,2.56,7.02,4.28"/>
	<path class="st0" d="M56.48,261.77c20.68,18.59,41.63,36.88,62.84,54.87"/>
	<path class="st0" d="M39.44,294.4c2.75,2.77,5.73,5.31,8.91,7.59c2.14,1.53,4.36,2.95,6.54,4.42c2.5,1.69,4.94,3.46,7.38,5.23
		c14.98,10.87,29.97,21.75,44.41,33.91c6.53-6.59,11.13-15.05,13.13-24.1c0.44-2.01,0.56-4.53-1.14-5.67"/>
	<path class="st0" d="M50.21,271.76c1.53,1.01,3.01,2.08,4.46,3.21"/>
	<path class="st0" d="M42.14,286.28c2.02,1.15,4.04,2.3,6.07,3.45"/>
	<path class="st0" d="M107.56,203.77c-14.48,21.41-29.2,42.65-44.14,63.74"/>
	<path class="st0" d="M45.31,300.13c-2.61,4.05-5.23,8.09-7.84,12.14"/>
	<path class="st0" d="M14.7,291.41c1.34,5.21,4.85,9.69,9.11,12.98c4.26,3.28,9.27,5.48,14.34,7.27"/>
	<path class="st0" d="M68.49,196.08c-11.43,19.08-22.12,38.6-32.81,58.11c-2.7,4.92-5.39,9.84-8.09,14.76
		c-4.26,7.77-8.52,15.55-12.78,23.32"/>
	<path class="st0" d="M100.83,194.56c0.59-0.86,0.85-1.72,1.7-2.66c-3.58-2.89-7.43-5.46-11.47-7.67c-4.04-2.21-8.58-4.1-13.13-3.36
		c-1.21,0.2-2.49,0.66-3.12,1.71c-0.59,0.99-0.44,2.28,0.09,3.3s1.39,1.82,2.24,2.59c7.75,7.02,16.51,13.31,26.6,16.09
		c0.88,0.24,1.87,0.45,2.68,0.02c0.92-0.49,1.27-1.7,1.07-2.72c-0.2-1.03-0.84-1.91-1.49-2.72
		C103.48,196.02,100.72,193.36,100.83,194.56z"/>
	<path class="st0" d="M68.25,196.76c2.05-3.86,4.17-7.68,6.38-11.46"/>
	<path class="st0" d="M101.2,194.72c-2.47-2.59-5.54-4.83-9.09-5.34c-1-0.14-2.28,0.01-2.63,0.96c-0.18,0.48-0.04,1.04,0.24,1.47
		c0.28,0.43,0.69,0.77,1.09,1.09c1.68,1.37,3.41,2.71,5.29,3.5c-0.97,1.22-1.86,2.51-2.66,3.85"/>
	<path class="st0" d="M89.51,190.06c-1.13,1.89-2.32,3.74-3.56,5.56"/>
	<path class="st0" d="M36.66,160.13c8.31,15.85,16.63,31.71,24.94,47.56"/>
	<path class="st0" d="M82.02,241.57c0.91,1.5,1.68,3.08,2.25,4.74"/>
	<path class="st0" d="M36.84,161.04c-0.57,5.18-1.14,10.37-1.57,15.27c6.31,14.06,13.48,27.73,21.47,40.91"/>
	<path class="st0" d="M77.56,247.88c1.49,2.55,2.99,5.1,4.48,7.64"/>
	<path class="st0" d="M81.46,255.65c0.78-3.65,1.55-7.3,2.09-11.36c1.93,1.32,3.01,3.79,2.66,6.11
		C85.86,252.71,84.1,254.75,81.46,255.65z"/>
	<path class="st0" d="M83.75,244.79c17.05-10.61,34.1-21.22,49.86-30.16c-1.08,3.04-4.19,4.79-7.04,6.31
		C112.05,228.68,98.02,237.34,83.75,244.79z"/>
	<path class="st0" d="M132.37,217.31c0.04,0.96,0.07,1.92,0.11,2.88c-16.16,8.47-31.95,17.62-47.33,27.43"/>
	<path class="st0" d="M85.83,250.16c15.27-10.12,31.07-19.43,47.33-27.86c-0.31-0.65-0.61-1.3-0.92-1.95"/>
	<path class="st0" d="M132.9,222.5c-17.11,10.51-33.96,21.46-50.53,32.82"/>
	<path class="st0" d="M127.47,217.93c2.31-1.48,4.69-2.83,7.14-4.05c-3.89-7.63-8.03-14.89-12.16-22.16
		c-10.35-18.17-20.71-36.35-32.62-54.05c-18.23,6.49-36,14.25-53.14,23.22"/>
	<path class="st0" d="M110.9,172.38c8.27-12.77,16.55-25.55,24.82-38.32"/>
	<path class="st0" d="M133.85,137.31c0.18,1.45,0.36,2.9,0.42,4.95c-7.8,10.33-15.13,21.02-21.97,32.01"/>
	<path class="st0" d="M133.18,144.69c0.14,0.83,0.28,1.67,0.39,2.62c-7.09,9.53-14,19.21-20.72,29.01"/>
	<path class="st0" d="M132.13,149.17c0.31,0.83,0.62,1.67,0.97,2.2c-6.66,9.07-13,18.37-19.02,27.87"/>
	<path class="st0" d="M131.84,152.87c0.18,0.7,0.35,1.41,0.53,2.11"/>
	<path class="st0" d="M132.26,154.18c-0.39,2.39-1.84,4.45-3.25,6.42c-4.79,6.68-9.59,13.36-14.38,20.03"/>
	<path class="st0" d="M135.85,134.78c-7.56-5.3-15.25-10.4-23.07-15.31c-4.3-2.7-8.63-5.34-12.97-7.98
		c-13.89-8.46-27.79-16.92-42.27-25.36c-13.66,15.4-27.36,30.85-39.16,47.34c10.16,6.51,20.11,13.35,29.83,20.5"/>
	<path class="st0" d="M18.89,133.76c0.1,6.19,0.73,12.36,0.88,18.71c5.67,4.82,11.33,9.64,17,14.46"/>
</g>
<g>
	<path class="st0" d="M469.82,138.74c1.77,2.8,5.11,8.53,5.11,8.53l-4.15,4.15l0.6,0.6"/>
	<path class="st0" d="M471.03,151.68c1.68,3.58,3.35,7.16,4.7,11.09c1.65-4.08,3.3-8.17,4.95-12.25"/>
	<path class="st0" d="M474.97,147.04c2.02,1.36,4.04,2.71,6.05,4.07"/>
	<path class="st0" d="M470.16,139.45c-0.33-0.48-0.66-0.95-0.52-1.59c6.05,3.26,11.68,7.29,16.57,11.85
		c-2.29,17.16-4.19,34.37-5.53,51.55c-0.26-0.38,0.05-1,0.51-1"/>
	<path class="st0" d="M469.15,137.4c-3.9,3.83-9.35,5.74-13.56,9.36c0.23,17.65,0.2,35.3-0.58,52.7c4.82,6.22,9.63,12.44,14.51,18.6
		"/>
	<path class="st0" d="M454.42,199.08c3.3,2.17,6.6,4.35,9.91,6.22c2.2,4.03,4.01,8.26,5.22,12.69c2.08-4.18,3.79-8.56,5.16-13.03"/>
	<path class="st0" d="M475.6,162.25c0.45,14.56,0.17,29.15-0.85,43.69"/>
	<path class="st0" d="M480.77,200.79c-2.26,1.36-4.44,2.88-6.49,4.54"/>
	<path class="st0" d="M463.9,205.48c-0.33-17.92-0.36-35.85-0.1-53.78"/>
	<path class="st0" d="M469.04,138.15c-1.78,4.74-3.67,9.44-5.66,14.1"/>
	<path class="st0" d="M456.34,146.54c2.61,1.5,5.11,3.21,7.46,5.1"/>
	<path class="st0" d="M471.11,151.19c-2.6,0.16-5.2,0.33-7.8,0.49"/>
	<path class="st0" d="M480.96,201.76c-3.52,5.74-7.31,11.31-11.43,16.64"/>
	<path class="st0" d="M480.12,150.98c1.75-0.84,3.64-1.38,5.59-1.39"/>
</g>
<text transform="matrix(1 0 0 1 133.1196 159.5825)" class="st1 st2 st3">Dungeon</text>
<text transform="matrix(1 0 0 1 226.3813 217.644)" class="st1 st2 st3">Master’s</text>
<text transform="matrix(1 0 0 1 264.1948 269.897)"><tspan x="0" y="0" class="st1 st2 st4">S</tspan><tspan x="34.95" y="0" class="st1 st2 st3">torefront</tspan></text>
<path class="st5" d="M183.71,201.47c3.17-3.6,6.19-7.32,9.65-10.15c3.73,2.98,7.31,6.15,10.71,9.51"/>
<path class="st5" d="M199.02,213.33c-0.32-3.32-0.63-6.65-0.95-9.97c-1.83-3.61-3.45-7.32-4.84-11.11
	c-1.41,3.35-3.16,7.27-4.99,11.61c0.04,3.6,0.19,7.2,0.41,11.05c1.58,2.49,3.35,4.85,5.27,7.11c1.85-2.52,3.5-5.18,4.99-7.94
	C198.92,213.5,198.93,212.93,199.02,213.33z"/>
<path class="st5" d="M203.58,200.83c0.44,4.49,1.01,8.97,1.73,13.35c-3.85,2.6-7.71,5.2-11.56,7.8"/>
<path class="st5" d="M183.55,201.81c-0.41,4.66-0.62,9.34-0.63,14.03c0,0.3,0.01,0.61,0.18,0.86c0.17,0.25,0.48,0.36,0.77,0.47
	c3.56,1.3,6.93,3.12,9.96,5.4"/>
<path class="st5" d="M182.46,217.35c1.99-0.77,3.98-1.53,6.13-2.34c3.51-0.33,7.03-0.55,10.55-0.65"/>
<path class="st5" d="M203.47,215.53c-1.44-0.36-2.89-0.71-4.33-1.07"/>
<path class="st5" d="M203.88,200.36c-2.12,0.75-4.17,1.67-6.38,2.81c-3.05,0.34-6.11,0.67-9.16,1.01"/>
<path class="st5" d="M183.66,201.51c1.42,1.15,3.04,2.07,4.76,2.69"/>
<path class="st5" d="M183.77,191.26c0.36,0.68,0.72,1.36,1.08,2.04"/>
<path class="st5" d="M179.57,198.82c0.4,0.16,0.8,0.32,1.2,0.48"/>
<path class="st5" d="M188.81,186.83c0.47,0.69,0.8,1.47,0.96,2.28"/>
<path class="st5" d="M194.79,187.66c0.24-1,0.48-2,0.72-3"/>
<path class="st5" d="M199.85,191.26c0.9-1.05,1.98-2.68,2.16-2.4"/>
<path class="st5" d="M204.99,196.41c0.71-0.77,1.42-1.54,2.13-2.3"/>
<path class="st5" d="M206.44,201.7c1.04-0.52,2.08-1.03,3.12-1.55"/>
<path class="st0" d="M428.34,95.5c-1.96-0.37-3.92-0.74-5.88-1.11C421.63,94.23,420.59,94.17,428.34,95.5z"/>
</svg>
