<?xml version="1.0" encoding="utf-8"?>
<!-- Generator: Adobe Illustrator 26.0.3, SVG Export Plug-In . SVG Version: 6.00 Build 0)  -->
<svg version="1.1" id="Layer_1" xmlns="http://www.w3.org/2000/svg" xmlns:xlink="http://www.w3.org/1999/xlink" x="0px" y="0px"
	 viewBox="0 0 743 369" enable-background="new 0 0 743 369" xml:space="preserve">
<g>
	<path fill="none" stroke="#935A24" stroke-miterlimit="10" d="M277.6,277.12c1.58-5.2,3.48-10.29,5.67-15.26"/>
	<path fill="none" stroke="#935A24" stroke-miterlimit="10" d="M297.11,262.42c6.38,4.09,12.54,8.53,18.44,13.3"/>
	<path fill="none" stroke="#935A24" stroke-miterlimit="10" d="M292.35,266.57c-0.58-0.18-1.26,0.02-1.65,0.49
		c-0.2,0.24-0.32,0.54-0.38,0.84c-0.2,1.09,0.62,2.27,1.7,2.41c1.08,0.14,2.18-0.85,2.13-1.95
		C294.1,267.26,292.85,266.38,292.35,266.57z"/>
	<path fill="none" stroke="#935A24" stroke-miterlimit="10" d="M291.91,266.48c2.95-4.54,5-9.66,6.02-15"/>
	<path fill="none" stroke="#935A24" stroke-miterlimit="10" d="M293.57,267.79c3.56-5.84,5.91-12.42,6.86-19.22"/>
	<path fill="none" stroke="#935A24" stroke-miterlimit="10" d="M297.74,252.66c0.88-4.73,1.61-9.52,1.52-14.33
		c-0.09-4.81-1.03-9.68-3.32-13.9"/>
	<path fill="none" stroke="#935A24" stroke-miterlimit="10" d="M300.23,249.36c2.55-10.15,0.8-21.33-4.73-30.19"/>
	<path fill="none" stroke="#935A24" stroke-miterlimit="10" d="M262.82,257.34c0.22-7.98,0.49-16.19,3.67-23.49
		c0.99-2.28,2.25-4.42,3.58-6.52c2.16-3.41,4.75-6.86,8.48-8.28c0.06-0.11,0.12-0.23,0.18-0.34"/>
	<path fill="none" stroke="#935A24" stroke-miterlimit="10" d="M278.45,219.2c2.93-2.14,6.94-2.54,10.33-1.28
		c3.39,1.26,6.12,4.08,7.57,7.44"/>
	<path fill="none" stroke="#935A24" stroke-miterlimit="10" d="M295.74,219.94c-2.05-2.44-4.9-4.19-7.99-4.91s-6.4-0.4-9.3,0.89
		c0,0,0.07-0.11,0.11-0.13c-4.06,2.99-8.21,6.08-10.98,10.32c-1.55,2.37-2.61,5.03-3.52,7.72c-2.58,7.68-3.91,15.9-2.94,23.96"/>
	<path fill="none" stroke="#935A24" stroke-miterlimit="10" d="M314.98,275.42c-12.39-0.31-24.79,0.01-37.15,0.96"/>
	<path fill="none" stroke="#935A24" stroke-miterlimit="10" d="M238.58,263.69c13.3,3.43,26.35,7.82,39.04,13.12"/>
	<path fill="none" stroke="#935A24" stroke-miterlimit="10" d="M265.38,256.82c-9.17,1.8-18.25,4.07-27.19,6.8"/>
	<path fill="none" stroke="#935A24" stroke-miterlimit="10" d="M264.11,256.74c6,2.2,12.15,3.97,18.18,5.74
		c3.82-0.78,7.69-1.36,11.57-1.74"/>
	<path fill="none" stroke="#935A24" stroke-miterlimit="10" d="M293.63,261.07c0.22-1.83,0.34-3.68-0.28-5.76
		c-8.92-1.29-17.84-2.57-27.32-3.45c0.07,1.79-0.18,3.59-0.76,5.29"/>
	<path fill="none" stroke="#935A24" stroke-miterlimit="10" d="M308.71,276.29c-4.02,18.14-7.36,36.43-9.85,54.84
		c0.02,0.03,0.03,0.07,0.05,0.1"/>
	<path fill="none" stroke="#935A24" stroke-miterlimit="10" d="M282.32,276.88c-3.79,19.65-7.11,39.39-9.86,59.22
		c0.01-0.03,0.02-0.05,0.02-0.08"/>
	<path fill="none" stroke="#935A24" stroke-miterlimit="10" d="M272.5,336.39c8.6-2.21,17.32-3.95,26.11-5.2"/>
	<path fill="none" stroke="#935A24" stroke-miterlimit="10" d="M277.52,327.77c5.71-0.71,11.42-1.43,17.13-2.14"/>
	<path fill="none" stroke="#935A24" stroke-miterlimit="10" d="M277.83,327.78c2.79-15.1,5.24-30.27,7.35-45.49
		c5.78-1.02,11.74-1.46,17.39-1.38c-1.18,15.3-6.43,30.04-7.81,45.32"/>
	<path fill="none" stroke="#935A24" stroke-miterlimit="10" d="M279.49,319.94c1.35-1.04,2.7-2.08,3.87-2.97
		c0.08,3.39-0.14,6.79-0.66,10.15"/>
	<path fill="none" stroke="#935A24" stroke-miterlimit="10" d="M283.09,316.32c-1.12,0.01-2.24-0.08-3.34-0.27"/>
	<path fill="none" stroke="#935A24" stroke-miterlimit="10" d="M264.58,313.62c-3.42,0.16-6.85-0.16-10.18-0.95"/>
	<path fill="none" stroke="#935A24" stroke-miterlimit="10" d="M264.13,318.25c-3.15-2.17-6.49-4.06-10.01-5.61
		c-1.08,3.38-2.17,6.77-3.25,10.15"/>
	<path fill="none" stroke="#935A24" stroke-miterlimit="10" d="M277.58,277.07c-3.61,19.4-7.23,38.79-10.84,58.19"/>
	<path fill="none" stroke="#935A24" stroke-miterlimit="10" d="M279.37,276.72c-0.48,4.6-1.31,9.16-2.14,13.71
		c-2.8,15.33-5.59,30.66-8.39,45.99"/>
	<path fill="none" stroke="#935A24" stroke-miterlimit="10" d="M274.45,335.97c-1.7,0.37-3.43,0.58-5.17,0.64
		c-11.66-3.77-22.81-7.63-34.48-11.76c0.55-1.79,0.96-3.63,1.24-5.49c0.01-0.03,0.02-0.05,0.02-0.08"/>
	<path fill="none" stroke="#935A24" stroke-miterlimit="10" d="M248.82,272.79c7.79,1.68,15.49,3.82,23.04,6.41"/>
	<path fill="none" stroke="#935A24" stroke-miterlimit="10" d="M262.41,326.85c3.26-15.83,6.51-31.67,9.77-47.5"/>
	<path fill="none" stroke="#935A24" stroke-miterlimit="10" d="M262.83,326.63c-7.22-2.23-14.43-4.47-21.42-6.13
		c2.45-16.01,4.91-32.02,7.36-48.02"/>
	<path fill="none" stroke="#935A24" stroke-miterlimit="10" d="M248.44,272.35c-8.08-1.51-16.16-3.03-24.72-4.25
		c-2.38,16.48-4.59,32.98-6.92,49.82c8.55,0.12,17.1,0.61,25.61,1.47"/>
	<path fill="none" stroke="#935A24" stroke-miterlimit="10" d="M244.61,274.87c-2.37,13.74-4.74,27.48-7.11,41.22"/>
	<path fill="none" stroke="#935A24" stroke-miterlimit="10" d="M244.67,274.56c-6.08-1.1-12.18-2.05-18.43-2.7
		c-2.45,14.02-4.26,28.15-5.46,42.33c5.77,0.5,11.53,1,17.3,1.49"/>
	<path fill="none" stroke="#935A24" stroke-miterlimit="10" d="M223.43,290.9c0.54,0.11,1.08,0.22,1.63,0.33
		c0.15,0.03,0.32,0.07,0.42,0.19c0.13,0.15,0.11,0.36,0.1,0.56c-0.37,3.82-0.75,7.68-1.97,11.32c-0.58-0.04-1.17-0.08-1.75-0.12"/>
	<path fill="none" stroke="#935A24" stroke-miterlimit="10" d="M223.05,293.77c0.49,0.13,0.93,0.46,1.2,0.89
		c-0.43,1.8-0.74,3.63-0.93,5.47c-0.38,0.02-0.76,0.04-1.14,0.06"/>
	<path fill="none" stroke="#935A24" stroke-miterlimit="10" d="M246.35,266.92c-0.38,1.96-0.76,3.92-1.15,5.88"/>
</g>
<g>
	<path fill="none" stroke="#935A24" stroke-miterlimit="10" d="M199.83,191.68c0.24,11.06,0.48,22.12,0.72,33.18
		c6.3,1.37,12.09,6.84,14.51,13.7c2.42,6.86,1.47,14.9-2.32,21.03c-0.78,1.27-1.69,2.47-2.77,3.46c-1.53,1.4-3.37,2.37-5.25,3.15
		c-3.97,1.64-8.34,2.5-12.53,1.66c-2.91-0.59-5.64-1.98-8.02-3.84c-6.32-4.93-10.09-13.5-9.07-21.73
		c1.02-8.24,7.05-15.67,14.35-16.9c0.05-10.88,0.09-21.76,0.14-32.64"/>
	<path fill="none" stroke="#935A24" stroke-miterlimit="10" d="M190.03,183.56c-1.52,0.38-2.99,0.99-4.37,1.78
		c-1.25,0.72-2.56,1.95-2.31,3.44c0.25,1.51,1.93,2.18,3.36,2.46c3.88,0.76,7.86,0.75,11.8,0.58c2.5-0.11,5.35-0.48,6.75-2.66
		c0.75-1.16,0.84-2.91-0.14-3.86c-0.34-0.33-0.77-0.52-1.2-0.7c-1.38-0.57-2.84-0.95-4.31-1.12"/>
	<path fill="none" stroke="#935A24" stroke-miterlimit="10" d="M197.13,188.34c1.66-4.05,3.32-8.09,4.99-12.14"/>
	<path fill="none" stroke="#935A24" stroke-miterlimit="10" d="M202.54,176.32c-1.77-5.4-4.28-10.52-7.53-14.92
		c-3.42,4.98-6.14,10.5-7.87,16.08c1.26,3.57,2.74,7.05,4.42,10.41"/>
	<path fill="none" stroke="#935A24" stroke-miterlimit="10" d="M197.3,188.01c-2.15,0.08-4.3,0.16-6.46,0.25"/>
	<path fill="none" stroke="#935A24" stroke-miterlimit="10" d="M194.89,161.6c0.04,4.84,0.08,9.67,0.3,13.55
		c-1.29,1.35-2.48,2.81-3.43,4.24c-1.63-0.29-3.22-0.9-4.65-1.78"/>
	<path fill="none" stroke="#935A24" stroke-miterlimit="10" d="M195.39,175.78c0.81,1.38,1.75,2.68,2.9,4.02
		c1.59-1.25,3.12-2.58,4.59-3.99"/>
	<path fill="none" stroke="#935A24" stroke-miterlimit="10" d="M198.51,179.62c-1.35,2.83-2.59,5.71-3.72,8.65"/>
	<path fill="none" stroke="#935A24" stroke-miterlimit="10" d="M191.75,179.84c1.01,2.97,1.85,6,2.53,9.06L191.75,179.84z"/>
	<path fill="none" stroke="#935A24" stroke-miterlimit="10" d="M214.28,239.51c-1.26-0.62-2.83,0.08-3.68,1.24
		c-0.86,1.16-1.17,2.66-1.42,4.11c-0.56,3.2-0.97,6.52-2.44,9.38c-1.47,2.86-4.32,5.22-7.39,4.89c-3.67-0.39-6.07-4.27-7.25-7.96
		c-1.18-3.69-1.8-7.78-4.25-10.69"/>
	<path fill="none" stroke="#935A24" stroke-miterlimit="10" d="M208.84,246.12c-1.8,1.7-4.59,1.85-6.81,0.86s-3.95-2.94-5.29-5.06
		c-1.34-2.12-2.36-4.45-3.61-6.63c-1.05-1.83-2.31-3.59-4.03-4.7c-1.73-1.11-4-1.46-5.77-0.42c-0.87,0.51-1.61,1.44-1.58,2.49
		c0.03,1.07,0.8,1.94,1.52,2.69c1.9,1.97,3.79,3.93,5.69,5.9"/>
	<path fill="none" stroke="#935A24" stroke-miterlimit="10" d="M205.34,236.5c-0.46-0.78-0.97-1.6-1.76-2
		c-0.79-0.4-1.93-0.14-2.2,0.74c-0.22,0.71,0.21,1.47,0.7,2.01c0.52,0.57,1.13,1.05,1.57,1.7c0.43,0.65,0.65,1.55,0.28,2.23
		C205.41,239.86,205.79,237.26,205.34,236.5z"/>
	<path fill="none" stroke="#935A24" stroke-miterlimit="10" d="M184.45,239.11c-0.27,0.58-1.01,0.97-0.9,1.61
		c0.09,0.52,0.71,0.71,1.22,0.7c0.19,0,0.39-0.02,0.57-0.11c0.51-0.26,0.57-1.1,0.19-1.54C185.15,239.31,184.5,239.22,184.45,239.11
		z"/>
	<path fill="none" stroke="#935A24" stroke-miterlimit="10" d="M188.3,260.14c-0.33-0.13-0.67-0.27-1.03-0.29
		c-0.36-0.02-0.74,0.1-0.96,0.39c-0.24,0.32-0.25,0.76-0.21,1.16c0.06,0.68,0.22,1.36,0.58,1.92c0.36,0.56,0.93,1,1.57,1.05
		c0.64,0.05,1.32-0.33,1.54-0.96c0.12-0.34,0.11-0.73,0.03-1.09C189.6,261.24,188.81,260.34,188.3,260.14z"/>
	<path fill="none" stroke="#935A24" stroke-miterlimit="10" d="M191.39,255.89c-0.3,0.01-0.61,0.01-0.9,0.12
		c-0.29,0.11-0.55,0.34-0.62,0.66c-0.13,0.56,0.39,1.05,0.89,1.29c0.26,0.13,0.56,0.23,0.84,0.15c0.48-0.13,0.7-0.79,0.55-1.29
		C192,256.32,191.58,255.96,191.39,255.89z"/>
	<path fill="none" stroke="#935A24" stroke-miterlimit="10" d="M190.13,248.12c-0.4,0.02-0.79,0.12-1.16,0.27
		c0.04,0.33,0.11,0.68,0.29,0.95c0.18,0.28,0.5,0.47,0.82,0.4c0.39-0.09,0.61-0.61,0.47-1.02
		C190.41,248.33,190.01,248.08,190.13,248.12z"/>
</g>
<g>
	<path fill="none" stroke="#935A24" stroke-miterlimit="10" d="M553.02,5c-12.16,17.83-24.59,35.49-37.08,52.83
		C508.28,69,500.61,80.18,492.9,91.48c-7.46,10.62-14.75,21.36-21.24,31.03c-6.84,10.38-13.99,20.59-21.42,30.6"/>
	<path fill="none" stroke="#935A24" stroke-miterlimit="10" d="M443.3,147.93c2.56,1.55,4.97,3.33,7.18,5.3"/>
	<path fill="none" stroke="#935A24" stroke-miterlimit="10" d="M552.61,5.42c-2.28,0.18-4.51,0.8-6.3,2.32
		c-10.85,14.34-21.46,28.84-31.36,43.03c-8.92,12.73-18.3,25.17-27.87,37.64c-8.34,10.94-16.5,22-24.47,33.52
		c-6.9,8.39-13.33,17.11-19.27,26.13"/>
	<path fill="none" stroke="#935A24" stroke-miterlimit="10" d="M461.61,122.08c2.09,0.75,4.32,1.15,6.56,1.2
		c1.17,0.02,2.36-0.06,3.49-0.35c1.58-0.41,3.01-1.23,4.41-2.04c0.79-0.46,1.59-0.92,2.2-1.57c0.65-0.69,1.06-1.54,1.45-2.39
		c1.16-2.52,2.26-5.32,1.44-7.95"/>
	<path fill="none" stroke="#935A24" stroke-miterlimit="10" d="M478.73,99.17c-0.31-2.45-0.26-5.01,0.74-7.3
		c1-2.28,3.07-4.25,5.64-4.7c4.71-0.82,8.93,3.44,13.72,3.39c0.42,0,0.88-0.06,1.17-0.34c0.29-0.28,0.35-0.7,0.37-1.09
		c0.14-2.24-0.28-4.5-1.23-6.56"/>
	<path fill="none" stroke="#935A24" stroke-miterlimit="10" d="M498.04,73.77c0-1.92,0-3.85,0.4-5.73s1.23-3.72,2.68-5.07
		s3.57-2.11,5.55-1.69"/>
	<path fill="none" stroke="#935A24" stroke-miterlimit="10" d="M514.03,62.01c1.62-0.33,2.98-1.59,3.36-3.12
		c0.48-1.88-0.45-3.8-1.28-5.57c-0.77-1.66-1.47-3.37-1.64-5.18s0.22-3.72,1.45-5.11c1.33-1.51,3.6-2.22,5.62-1.75"/>
	<path fill="none" stroke="#935A24" stroke-miterlimit="10" d="M527.22,42.89c1.66-0.68,3.56-1.64,3.8-3.34
		c0.16-1.1-0.46-2.16-0.98-3.15c-0.59-1.13-1.09-2.3-1.49-3.51c-0.47-1.4-0.8-2.93-0.34-4.33c0.63-1.95,2.89-3.31,5.02-3.01"/>
	<path fill="none" stroke="#935A24" stroke-miterlimit="10" d="M531.42,39.38c-0.2-2.16,1.7-4.29,3.98-4.47
		C535.53,37.33,533.61,39.69,531.42,39.38z"/>
	<path fill="none" stroke="#935A24" stroke-miterlimit="10" d="M531.15,40.13c-0.15,0.84,0.57,1.72,1.46,1.8
		c0.66,0.06,1.3-0.26,1.96-0.24"/>
	<path fill="none" stroke="#935A24" stroke-miterlimit="10" d="M534.51,41.74c-0.02-0.91-0.81-1.75-1.77-1.89
		c-0.38-0.08-0.76-0.15-1.13-0.23l0.23,0.11"/>
	<path fill="none" stroke="#935A24" stroke-miterlimit="10" d="M518.45,41.44c-0.76-0.62-1.03-1.65-0.94-2.6
		c0.09-0.95,0.5-1.84,0.71-2.45c0.29,0.57,0.64,1.11,0.9,1.69c0.26,0.58,0.42,1.22,0.3,1.84C519.29,40.54,518.88,41.11,518.45,41.44
		z"/>
	<path fill="none" stroke="#935A24" stroke-miterlimit="10" d="M517.53,40.54c-0.78-0.46-1.77-0.39-2.68-0.26
		C515.19,41.24,516.24,41.94,517.53,40.54z"/>
	<path fill="none" stroke="#935A24" stroke-miterlimit="10" d="M503.29,61.08c-0.38-0.18-0.76-0.37-1.04-0.67
		c-0.44-0.49-0.5-1.18-0.48-1.82c0.05-1.52,0.47-3.03,1.2-4.39c0.9,0.97,1.43,2.24,1.48,3.52C504.5,59.01,504.07,60.31,503.29,61.08
		z"/>
	<path fill="none" stroke="#935A24" stroke-miterlimit="10" d="M514.3,61.96c-0.3,0.07-0.61,0.15-0.91,0.22"/>
	<path fill="none" stroke="#935A24" stroke-miterlimit="10" d="M499.92,84.24c-0.24-0.58-0.14-1.25,0.16-1.81
		c0.3-0.56,0.77-1.01,1.28-1.4c1-0.77,2.16-1.35,3.4-1.68c0.7-0.19,1.44-0.31,2.03-0.71c-0.43,1.03-0.87,2.06-1.51,2.99
		c-0.64,0.93-1.5,1.75-2.57,2.2C501.83,84.19,500.83,84.29,499.92,84.24z"/>
	<path fill="none" stroke="#935A24" stroke-miterlimit="10" d="M481.22,88.74c0.68-0.61,1.02-1.5,1.11-2.38
		c0.09-0.88-0.05-1.77-0.23-2.64c-0.11-0.54-0.23-1.09-0.47-1.59c-0.25-0.5-0.64-0.95-1.17-1.18c-0.73,2.05-1,4.34-0.12,6.33
		C480.6,87.89,480.99,88.48,481.22,88.74z"/>
	<path fill="none" stroke="#935A24" stroke-miterlimit="10" d="M477.85,120.28c2.34,1.52,3.68,4.31,3.37,6.98
		c-1.15-0.66-2.03-1.68-2.62-2.82c-0.59-1.14-0.89-2.4-1.03-3.66C477.53,120.5,477.59,120.11,477.85,120.28z"/>
	<path fill="none" stroke="#935A24" stroke-miterlimit="10" d="M479.83,117.81c-0.25,0.27-0.57,0.52-0.65,0.87
		c-0.09,0.37,0.11,0.75,0.41,1c0.3,0.24,0.69,0.36,1.08,0.44c1.51,0.31,3.11,0.11,4.56-0.41c1.45-0.51,2.77-1.32,3.99-2.22
		c-0.88-0.47-1.78-0.95-2.77-1.11c-0.83-0.14-1.69-0.06-2.51,0.11C482.34,116.8,480.52,117.06,479.83,117.81z"/>
</g>
<g>
	<path fill="none" stroke="#935A24" stroke-miterlimit="10" d="M710.43,321.03c-16.93,0.73-33.87,1.14-50.97,1.21
		c-1.49,2.06-2.98,4.12-4.48,6.21c0.83,7.29,1.55,14.59,2.19,21.89"/>
	<path fill="none" stroke="#935A24" stroke-miterlimit="10" d="M656.69,350.19c3.86,0.61,7.75-0.47,11.63-0.98
		c2.1-0.27,4.21-0.38,6.32-0.48c13.47-0.66,26.94-1.26,40.25-1.53c0.8-7.4,0.77-14.91-0.08-21.96c-1.35-1.46-2.71-2.92-4.06-4.39
		c-0.44,0.2-0.93,0.25-1.39,0.16"/>
	<path fill="none" stroke="#935A24" stroke-miterlimit="10" d="M714.48,347.34c-1.12,1.57-2.28,3.09-3.5,4.57"/>
	<path fill="none" stroke="#935A24" stroke-miterlimit="10" d="M657.39,350.66c1.04,1.24,2.09,2.47,3.06,3.39
		c7.56-0.18,15.13-0.36,22.1-0.86c7.53-0.29,15.05-0.59,22.58-0.88c2.05-0.08,4.11-0.16,6.15-0.37"/>
	<path fill="none" stroke="#935A24" stroke-miterlimit="10" d="M663.57,358.27c2.08-0.22,4.18-0.33,6.27-0.45
		c12.57-0.67,25.13-1.33,37.71-1.65"/>
	<path fill="none" stroke="#935A24" stroke-miterlimit="10" d="M710.62,352.27c-1.07,1.39-2.22,2.71-3.45,3.95"/>
	<path fill="none" stroke="#935A24" stroke-miterlimit="10" d="M704.72,359.63c-12.75,0.18-25.51,0.36-38.2,1.69"/>
	<path fill="none" stroke="#935A24" stroke-miterlimit="10" d="M707.17,356.44c-0.73,1.15-1.51,2.27-2.35,3.34"/>
	<path fill="none" stroke="#935A24" stroke-miterlimit="10" d="M667.13,361.36c-1.22-1.02-2.39-2.1-3.51-3.24"/>
	<path fill="none" stroke="#935A24" stroke-miterlimit="10" d="M660.02,353.92c1.58,1.46,3.02,3.07,4.32,4.8"/>
	<path fill="none" stroke="#935A24" stroke-miterlimit="10" d="M709,266.88c-0.04,18.16-0.08,36.31-0.11,54.47"/>
	<path fill="none" stroke="#935A24" stroke-miterlimit="10" d="M662.99,280.99c4.64-4.9,9.49-9.57,14.54-13.99"/>
	<path fill="none" stroke="#935A24" stroke-miterlimit="10" d="M663.62,302.93c5.4,5.71,10.37,11.87,14.92,18.35
		c0.11,0.17,0.21,0.35,0.32,0.52"/>
	<path fill="none" stroke="#935A24" stroke-miterlimit="10" d="M709.12,277.28c3.01-0.4,6.07-0.38,8.88,0.05
		c-0.32,9.92-0.53,19.84-0.44,29.74c-2.96-0.35-5.97-0.25-8.91,0.28"/>
	<path fill="none" stroke="#935A24" stroke-miterlimit="10" d="M715.22,261.19c-1.45,1.93-2.94,3.83-4.48,5.69"/>
	<path fill="none" stroke="#935A24" stroke-miterlimit="10" d="M655.57,261.03c2.32,2.15,4.64,4.29,6.96,6.44"/>
	<path fill="none" stroke="#935A24" stroke-miterlimit="10" d="M654.66,240.19c-0.01,7.05,0.4,14.09,1.22,21.08"/>
	<path fill="none" stroke="#935A24" stroke-miterlimit="10" d="M713.76,238.3c0.49,7.76,0.82,15.53,1,23.3"/>
	<path fill="none" stroke="#935A24" stroke-miterlimit="10" d="M710.93,266.78c-16.42,0.17-32.84,0.29-49.26,0.36"/>
	<path fill="none" stroke="#935A24" stroke-miterlimit="10" d="M713.21,238.63c-19.55,0.31-39.1,0.97-58.64,1.97"/>
	<path fill="none" stroke="#935A24" stroke-miterlimit="10" d="M657.34,236.72c7.99-0.2,15.99-0.41,23.28-0.72
		c10.07,0.16,20.14-0.13,30.19-0.87"/>
	<path fill="none" stroke="#935A24" stroke-miterlimit="10" d="M708.13,231.33c-8.64-0.11-17.28,0.03-25.9,0.41"/>
	<path fill="none" stroke="#935A24" stroke-miterlimit="10" d="M661.29,232.19c7.2-0.24,14.39-0.37,21.59-0.37"/>
	<path fill="none" stroke="#935A24" stroke-miterlimit="10" d="M665.65,227c-3.54,4.52-7.28,8.87-11.21,13.02"/>
	<path fill="none" stroke="#935A24" stroke-miterlimit="10" d="M714.06,238.39c-3.82-3.99-7.54-8.08-10.98-12.33
		c-12.75,0.2-25.5,0.65-38.23,1.34"/>
	<path fill="none" stroke="#935A24" stroke-miterlimit="10" d="M643.96,306.01c6.55-0.62,13.1-1.24,19.65-1.87
		c-0.23-3.65-0.54-7.33-0.55-11.02c-0.02-4.23,0.35-8.47-0.18-12.55c-6.62-0.84-13.31-1.11-19.74-0.6
		C644.29,288.68,643.35,297.57,643.96,306.01z"/>
	<path fill="none" stroke="#935A24" stroke-miterlimit="10" d="M633.05,338.76"/>
	<path fill="none" stroke="#935A24" stroke-miterlimit="10" d="M617.44,300.03c8.78-0.22,17.57-0.44,26.35-0.66"/>
	<path fill="none" stroke="#935A24" stroke-miterlimit="10" d="M616.76,286.82c8.91,0.42,17.84,0.57,26.76,0.44"/>
	<path fill="none" stroke="#935A24" stroke-miterlimit="10" d="M606.11,302.68c3.75-0.37,7.52-0.54,11.28-0.51
		c-0.32-5.99-0.58-12.08-0.9-18.17c-3.9-0.12-7.81-0.11-11.43-0.07C605.35,290.3,605.65,296.67,606.11,302.68z"/>
	<path fill="none" stroke="#935A24" stroke-miterlimit="10" d="M605.34,299.21c-13.17,0.05-26.33,0.11-39.5,0.16"/>
	<path fill="none" stroke="#935A24" stroke-miterlimit="10" d="M604.61,286.41c-13.02-0.32-26.06,0.08-39.11,1.12
		c0.16,3.61,0.32,7.22,0.48,10.83c0.01,0.33,0.03,0.68,0.16,0.98"/>
	<path fill="none" stroke="#935A24" stroke-miterlimit="10" d="M545.79,297.77c6.7-0.51,13.42-0.57,20.13-0.18"/>
	<path fill="none" stroke="#935A24" stroke-miterlimit="10" d="M545.35,288.07c6.66,0.36,13.33,0.72,19.99,1.07"/>
	<path fill="none" stroke="#935A24" stroke-miterlimit="10" d="M536.45,301.91c3.11,0.33,6.25,0.42,9.37,0.25
		c0.37-5.89,0.34-11.97-0.13-18.01c-3.41-0.4-6.88-0.29-10.52,0.11c0.34,5.77,0.67,11.54,1.01,17.31
		C536.2,301.79,536.44,302.08,536.45,301.91z"/>
	<path fill="none" stroke="#935A24" stroke-miterlimit="10" d="M535.09,287.7c-11.52-0.07-23.03-0.02-34.55,0.17"/>
	<path fill="none" stroke="#935A24" stroke-miterlimit="10" d="M495.22,301.17c13.67-0.34,27.34-0.6,41.01-0.77"/>
	<path fill="none" stroke="#935A24" stroke-miterlimit="10" d="M391.1,302.34c2.3-0.34,4.63-0.36,6.96-0.37
		c10.25-0.07,20.51-0.13,30.76-0.2"/>
	<path fill="none" stroke="#935A24" stroke-miterlimit="10" d="M495.73,301.24c-14.33-0.31-28.66-0.21-42.73,0.55
		c-8.71,0.07-17.41,0.15-26.12,0.22"/>
	<path fill="none" stroke="#935A24" stroke-miterlimit="10" d="M500.94,287.84c-15.47-0.04-30.94-0.08-46.61-0.28
		c-12.41,0.22-24.81,0.43-36.94,0.66c-9.21,0.3-18.43,0.45-27.9,0.66c-1.36-2.02-3.87-2.92-6.21-2.76c-2.34,0.17-4.54,1.26-6.51,2.6
		c-1.36,0.92-2.7,2.02-3.43,3.54c-0.61,1.26-0.76,2.72-0.67,4.13c0.22,3.65,2.04,7.2,4.91,9.24c2.87,2.04,6.74,2.48,9.9,0.97
		s5.42-4.97,5.51-8.63c0.08-3.69-1.89-7.09-4.14-9.92"/>
	<path fill="none" stroke="#935A24" stroke-miterlimit="10" d="M417.97,288.1c-5.02,3.14-9,8.1-11.12,13.84"/>
	<path fill="none" stroke="#935A24" stroke-miterlimit="10" d="M427.18,288.03c-4.37,3.91-8.04,8.69-10.78,14"/>
	<path fill="none" stroke="#935A24" stroke-miterlimit="10" d="M436.53,288.02c-4.53,3.84-8.41,8.55-11.38,13.83"/>
	<path fill="none" stroke="#935A24" stroke-miterlimit="10" d="M447.68,287.5c-5.11,3.7-9.38,8.66-12.38,14.39"/>
	<path fill="none" stroke="#935A24" stroke-miterlimit="10" d="M456.18,287.39c-5.24,3.68-9.67,8.66-12.82,14.42"/>
	<path fill="none" stroke="#935A24" stroke-miterlimit="10" d="M465.64,287.79c-5.5,3.45-10.19,8.34-13.55,14.1"/>
	<path fill="none" stroke="#935A24" stroke-miterlimit="10" d="M475.35,287.56c-5.37,3.35-9.26,8.75-13.01,14.02"/>
	<path fill="none" stroke="#935A24" stroke-miterlimit="10" d="M483.5,287.72c-4.71,3.69-8.74,8.36-11.8,13.65"/>
	<path fill="none" stroke="#935A24" stroke-miterlimit="10" d="M492.43,287.61c-4.73,3.53-8.6,8.34-11.14,13.85"/>
	<path fill="none" stroke="#935A24" stroke-miterlimit="10" d="M501.46,287.92c-4.66,3.41-8.5,8.07-11.03,13.43"/>
	<path fill="none" stroke="#935A24" stroke-miterlimit="10" d="M509.74,287.84c-4.16,3.77-7.67,8.34-10.32,13.41"/>
	<path fill="none" stroke="#935A24" stroke-miterlimit="10" d="M518.49,287.93c-3.77,3.89-6.99,8.36-9.54,13.23"/>
</g>
<g>
	<path fill="none" stroke="#935A24" stroke-miterlimit="10" d="M70.25,275.94c-1.79-1.45-3.64-2.83-6.25-4.4
		c0.93-1.56,2.15-2.93,3.58-4c0.72-0.54,1.74-1,2.44-0.43c0.44,0.35,0.57,0.98,0.64,1.56c0.36,3.25-0.54,6.51-1.69,9.54
		c-1.37,3.63-3.72,7.55-7.4,7.89c-0.53,0.05-1.09,0.01-1.55-0.28c-0.5-0.31-0.82-0.87-1.05-1.44c-1.02-2.46-0.9-5.28-0.48-7.93
		c1.22-7.83,4.83-15.23,10.16-20.81c1.06-1.11,2.22-2.17,3.6-2.77s3.04-0.66,4.32,0.16c1.3,0.84,2.01,2.47,2.12,4.08
		c0.11,1.61-0.31,3.2-0.83,4.72"/>
	<path fill="none" stroke="#935A24" stroke-miterlimit="10" d="M78.18,259.36c-1.31,11.34-5.2,22.34-11.25,31.8
		c-1,1.57-2.08,3.11-3.41,4.37c-1.4,1.31-3.35,2.33-5.1,1.65c-1.3-0.51-2.17-1.85-2.53-3.27c-0.36-1.41-0.29-2.9-0.26-4.36
		c3.06,1.45,5.94,3.31,8.56,5.52"/>
	<path fill="none" stroke="#935A24" stroke-miterlimit="10" d="M77.94,254.41c25.22,23.96,50.76,47.54,76.61,70.73"/>
	<path fill="none" stroke="#935A24" stroke-miterlimit="10" d="M57.16,296.46c3.35,3.57,6.99,6.85,10.86,9.79
		c2.61,1.98,5.31,3.8,7.97,5.7c3.04,2.18,6.02,4.46,8.99,6.74c18.27,14.01,36.54,28.04,54.14,43.71c7.96-8.49,13.57-19.4,16-31.07
		c0.54-2.59,0.69-5.83-1.39-7.31"/>
	<path fill="none" stroke="#935A24" stroke-miterlimit="10" d="M70.29,267.28c1.86,1.31,3.67,2.69,5.43,4.14"/>
	<path fill="none" stroke="#935A24" stroke-miterlimit="10" d="M60.46,286c2.47,1.48,4.93,2.97,7.4,4.45"/>
	<path fill="none" stroke="#935A24" stroke-miterlimit="10" d="M140.2,179.64c-17.66,27.59-35.6,54.98-53.82,82.16"/>
	<path fill="none" stroke="#935A24" stroke-miterlimit="10" d="M64.32,303.86c-3.19,5.22-6.37,10.43-9.56,15.65"/>
	<path fill="none" stroke="#935A24" stroke-miterlimit="10" d="M27,292.62c1.63,6.72,5.91,12.49,11.11,16.73
		c5.2,4.23,11.3,7.06,17.49,9.37"/>
	<path fill="none" stroke="#935A24" stroke-miterlimit="10" d="M92.58,169.74c-13.93,24.6-26.97,49.75-40,74.9
		c-3.29,6.34-6.57,12.68-9.86,19.02c-5.19,10.02-10.39,20.04-15.58,30.06"/>
	<path fill="none" stroke="#935A24" stroke-miterlimit="10" d="M132,167.78c0.73-1.11,1.04-2.22,2.07-3.42
		c-4.37-3.73-9.05-7.04-13.98-9.89c-4.92-2.85-10.46-5.29-16-4.33c-1.47,0.25-3.04,0.85-3.8,2.21c-0.72,1.27-0.54,2.94,0.11,4.25
		s1.7,2.35,2.73,3.34c9.45,9.05,20.13,17.16,32.42,20.74c1.08,0.31,2.28,0.58,3.27,0.02c1.12-0.64,1.55-2.19,1.31-3.51
		s-1.02-2.46-1.82-3.5C135.23,169.66,131.87,166.23,132,167.78z"/>
	<path fill="none" stroke="#935A24" stroke-miterlimit="10" d="M92.28,170.61c2.5-4.98,5.09-9.9,7.77-14.77"/>
	<path fill="none" stroke="#935A24" stroke-miterlimit="10" d="M132.45,167.98c-3.01-3.34-6.76-6.23-11.08-6.88
		c-1.22-0.18-2.78,0.02-3.21,1.24c-0.22,0.62-0.05,1.34,0.29,1.9c0.34,0.56,0.84,0.99,1.33,1.41c2.05,1.76,4.16,3.49,6.45,4.51
		c-1.18,1.58-2.27,3.23-3.25,4.96"/>
	<path fill="none" stroke="#935A24" stroke-miterlimit="10" d="M118.19,161.97c-1.38,2.43-2.83,4.82-4.35,7.16"/>
	<path fill="none" stroke="#935A24" stroke-miterlimit="10" d="M53.77,123.4c10.13,20.43,20.27,40.87,30.4,61.3"/>
	<path fill="none" stroke="#935A24" stroke-miterlimit="10" d="M109.06,228.37c1.11,1.93,2.05,3.97,2.75,6.11"/>
	<path fill="none" stroke="#935A24" stroke-miterlimit="10" d="M53.99,124.57c-0.69,6.68-1.39,13.36-1.91,19.68
		c7.69,18.12,16.44,35.74,26.17,52.73"/>
	<path fill="none" stroke="#935A24" stroke-miterlimit="10" d="M103.64,236.5c1.82,3.28,3.64,6.57,5.46,9.85"/>
	<path fill="none" stroke="#935A24" stroke-miterlimit="10" d="M108.38,246.52c0.95-4.7,1.89-9.41,2.55-14.65
		c2.35,1.7,3.66,4.89,3.24,7.87C113.75,242.73,111.61,245.36,108.38,246.52z"/>
	<path fill="none" stroke="#935A24" stroke-miterlimit="10" d="M111.18,232.52c20.79-13.68,41.57-27.35,60.78-38.87
		c-1.32,3.92-5.1,6.17-8.58,8.13C145.68,211.76,128.58,222.92,111.18,232.52z"/>
	<path fill="none" stroke="#935A24" stroke-miterlimit="10" d="M170.45,197.1c0.04,1.24,0.09,2.47,0.13,3.71
		c-19.69,10.91-38.95,22.71-57.7,35.35"/>
	<path fill="none" stroke="#935A24" stroke-miterlimit="10" d="M113.71,239.44c18.61-13.05,37.88-25.04,57.7-35.91
		c-0.37-0.84-0.75-1.68-1.12-2.52"/>
	<path fill="none" stroke="#935A24" stroke-miterlimit="10" d="M171.1,203.8c-20.86,13.55-41.41,27.66-61.6,42.3"/>
	<path fill="none" stroke="#935A24" stroke-miterlimit="10" d="M164.47,197.89c2.81-1.9,5.72-3.65,8.71-5.22
		c-4.74-9.83-9.78-19.2-14.83-28.57c-12.62-23.42-25.24-46.86-39.77-69.67c-22.22,8.36-43.88,18.37-64.78,29.92"/>
	<path fill="none" stroke="#935A24" stroke-miterlimit="10" d="M144.27,139.18c10.09-16.47,20.17-32.93,30.26-49.4"/>
	<path fill="none" stroke="#935A24" stroke-miterlimit="10" d="M172.25,93.98c0.22,1.87,0.44,3.74,0.52,6.38
		c-9.51,13.32-18.45,27.09-26.78,41.26"/>
	<path fill="none" stroke="#935A24" stroke-miterlimit="10" d="M171.44,103.5c0.17,1.07,0.34,2.15,0.48,3.38
		c-8.65,12.29-17.07,24.76-25.26,37.39"/>
	<path fill="none" stroke="#935A24" stroke-miterlimit="10" d="M170.15,109.27c0.38,1.08,0.75,2.15,1.19,2.84
		c-8.12,11.69-15.85,23.67-23.19,35.93"/>
	<path fill="none" stroke="#935A24" stroke-miterlimit="10" d="M169.81,114.03c0.21,0.91,0.43,1.81,0.64,2.72"/>
	<path fill="none" stroke="#935A24" stroke-miterlimit="10" d="M170.31,115.73c-0.47,3.08-2.24,5.74-3.97,8.28
		c-5.85,8.61-11.69,17.22-17.54,25.82"/>
	<path fill="none" stroke="#935A24" stroke-miterlimit="10" d="M174.7,90.72c-9.22-6.83-18.59-13.41-28.12-19.73
		c-5.24-3.48-10.53-6.88-15.81-10.28C113.83,49.8,96.89,38.9,79.23,28.02C62.57,47.87,45.87,67.79,31.49,89.04
		c12.38,8.4,24.51,17.21,36.37,26.42"/>
	<path fill="none" stroke="#935A24" stroke-miterlimit="10" d="M32.11,89.4c0.12,7.97,0.89,15.94,1.07,24.11
		c6.91,6.21,13.82,12.42,20.73,18.64"/>
</g>
<g>
	<path fill="none" stroke="#935A24" stroke-miterlimit="10" d="M581.83,95.83c2.15,3.61,6.23,10.99,6.23,10.99l-5.05,5.34l0.73,0.77
		"/>
	<path fill="none" stroke="#935A24" stroke-miterlimit="10" d="M583.31,112.5c2.04,4.61,4.09,9.23,5.73,14.29
		c2.01-5.27,4.02-10.53,6.04-15.8"/>
	<path fill="none" stroke="#935A24" stroke-miterlimit="10" d="M588.11,106.53c2.46,1.75,4.92,3.5,7.38,5.25"/>
	<path fill="none" stroke="#935A24" stroke-miterlimit="10" d="M582.25,96.75c-0.41-0.61-0.81-1.23-0.63-2.04
		c7.37,4.2,14.24,9.4,20.2,15.27c-2.8,22.12-5.11,44.3-6.74,66.44c-0.32-0.49,0.06-1.29,0.63-1.29"/>
	<path fill="none" stroke="#935A24" stroke-miterlimit="10" d="M581.02,94.1c-4.75,4.93-11.4,7.4-16.53,12.07
		c0.28,22.75,0.25,45.5-0.7,67.93c5.87,8.01,11.74,16.03,17.69,23.98"/>
	<path fill="none" stroke="#935A24" stroke-miterlimit="10" d="M563.07,173.6c4.02,2.8,8.04,5.6,12.08,8.02
		c2.68,5.19,4.89,10.65,6.36,16.36c2.54-5.39,4.62-11.03,6.29-16.79"/>
	<path fill="none" stroke="#935A24" stroke-miterlimit="10" d="M588.88,126.13c0.55,18.77,0.21,37.58-1.04,56.31"/>
	<path fill="none" stroke="#935A24" stroke-miterlimit="10" d="M595.18,175.81c-2.76,1.76-5.41,3.71-7.92,5.85"/>
	<path fill="none" stroke="#935A24" stroke-miterlimit="10" d="M574.61,181.86c-0.4-23.1-0.44-46.22-0.12-69.32"/>
	<path fill="none" stroke="#935A24" stroke-miterlimit="10" d="M580.88,95.06c-2.17,6.11-4.48,12.17-6.9,18.17"/>
	<path fill="none" stroke="#935A24" stroke-miterlimit="10" d="M565.4,105.88c3.19,1.94,6.23,4.14,9.09,6.57"/>
	<path fill="none" stroke="#935A24" stroke-miterlimit="10" d="M583.4,111.87c-3.17,0.21-6.34,0.43-9.51,0.64"/>
	<path fill="none" stroke="#935A24" stroke-miterlimit="10" d="M595.42,177.05c-4.29,7.4-8.91,14.58-13.94,21.44"/>
	<path fill="none" stroke="#935A24" stroke-miterlimit="10" d="M594.39,111.6c2.13-1.08,4.43-1.78,6.82-1.79"/>
</g>
<g>
	<path fill="#231F20" stroke="#A6732A" stroke-miterlimit="10" d="M190.64,114.43c0,3.09-0.54,5.39-1.61,6.91
		c-1.07,1.52-2.9,2.28-5.48,2.28c-1.31,0-2.41-0.15-3.29-0.46l0.15-0.77c1.07,0.26,2.04,0.39,2.92,0.39c2.43,0,4.09-0.67,4.96-2.01
		c0.88-1.34,1.31-3.45,1.31-6.33V91.2c-0.34,0.05-0.83,0.08-1.46,0.08c-2.92,0-5.28-0.98-7.08-2.93c-1.8-1.96-2.7-4.55-2.7-7.8
		c0-3.24,1.61-5.48,4.82-6.72c0.58-0.2,1.12-0.39,1.61-0.54v-0.15l-1.68,0.31c-4.67-0.1-8.58-1.09-11.72-2.97
		c-3.14-1.88-4.9-4.85-5.29-8.92l0.88-0.15c0.78,7.41,6.81,11.12,18.11,11.12c1.61,0,3.46-0.08,5.55-0.23V114.43z M188.16,90.35
		c0.68,0,1.17-0.03,1.46-0.08V73.29c-2.73,0.21-4.72,0.59-5.99,1.16c-2.82,1.18-4.23,3.23-4.23,6.14c0,2.91,0.8,5.26,2.41,7.06
		C183.41,89.45,185.53,90.35,188.16,90.35z M192.54,72.13c5.55-0.41,9.42-0.62,11.61-0.62c2.19,0,4.23,0.44,6.13,1.31
		c1.9,0.88,3.44,2.03,4.64,3.47c1.19,1.44,2.15,3.27,2.88,5.48c1.31,3.91,1.97,8.85,1.97,14.82c0,5.97-1.18,11.5-3.54,16.6
		c-2.36,5.09-5.9,8.59-10.62,10.5c-4.53,0-8.88-1.21-13.07-3.63V72.13z M203.71,72.44c-1.22,0-4.6,0.18-10.15,0.54v46.47
		c4.09,2.21,8.03,3.32,11.83,3.32c3.02-1.24,5.57-3.32,7.67-6.25c3.8-5.3,5.69-12.02,5.69-20.15c0-11.68-2.53-19.04-7.59-22.08
		C209.11,73.05,206.63,72.44,203.71,72.44z"/>
	<path fill="#231F20" stroke="#A6732A" stroke-miterlimit="10" d="M255.1,91.58v20.92c0,6.85,2.09,10.27,6.28,10.27
		c1.27,0,2.21-0.21,2.85-0.62l0.44,0.54c-0.73,0.62-1.9,0.93-3.5,0.93c-4.67,0-7.01-3.71-7.01-11.12v-2.01
		c-1.7,2.99-3.86,5.65-6.46,7.99c-2.6,2.34-5.25,4.13-7.92,5.36c-4.04-1.9-6.06-5.94-6.06-12.12c0-0.26,0-0.49,0-0.69l0.36-16.13
		c0-0.36,0-0.72,0-1.08c0-2.52-0.33-4.44-0.99-5.75c-0.66-1.31-2.18-1.97-4.56-1.97c-1.27,0-2.22,0.21-2.85,0.62l-0.44-0.54
		c0.73-0.62,1.9-0.93,3.5-0.93c2.63,0,4.33,0.73,5.11,2.2c0.78,1.47,1.17,3.62,1.17,6.45c0,0.31,0,0.64,0,1l-0.37,16.13
		c0,0.31,0,0.62,0,0.93c0,5.46,1.73,9.11,5.18,10.96c2.77-1.34,5.44-3.25,7.99-5.75c2.56-2.5,4.66-5.24,6.32-8.22V91.58
		c0-3.5-2.09-5.25-6.28-5.25c-0.88,0-1.85,0.13-2.92,0.39l-0.15-0.69c0.88-0.36,2.04-0.54,3.5-0.54c1.46,0,2.81,0.33,4.05,1
		c1.24,0.67,1.98,1.67,2.23,3.01c0.24-1.34,1-2.34,2.26-3.01c1.26-0.67,2.63-1,4.09-1c1.46,0,2.63,0.18,3.5,0.54l-0.15,0.69
		c-1.07-0.26-2.04-0.39-2.92-0.39C257.2,86.33,255.1,88.08,255.1,91.58z"/>
	<path fill="#231F20" stroke="#A6732A" stroke-miterlimit="10" d="M297.45,97.14c0-5.45-1.73-9.11-5.18-10.96
		c-2.82,1.34-5.51,3.26-8.07,5.75c-2.56,2.5-4.64,5.24-6.24,8.22v17.37c0,3.5,2.09,5.25,6.28,5.25c0.88,0,1.85-0.13,2.92-0.39
		l0.15,0.69c-0.88,0.36-2.04,0.54-3.5,0.54s-2.82-0.34-4.09-1c-1.27-0.67-2.02-1.67-2.26-3.01c-0.24,1.34-0.99,2.34-2.23,3.01
		c-1.24,0.67-2.59,1-4.05,1s-2.63-0.18-3.5-0.54l0.15-0.69c1.07,0.26,2.04,0.39,2.92,0.39c4.19,0,6.28-1.75,6.28-5.25V96.6
		c0-6.84-2.09-10.27-6.28-10.27c-1.27,0-2.22,0.21-2.85,0.62l-0.44-0.54c0.73-0.62,1.9-0.93,3.5-0.93c4.67,0,7.01,3.71,7.01,11.12
		v2.08c1.65-3.04,3.77-5.71,6.35-8.03c2.58-2.32,5.26-4.12,8.03-5.4c4.04,1.9,6.06,5.94,6.06,12.12c0,0.26,0,0.49,0,0.69
		l-0.37,16.13c0,0.36,0,0.72,0,1.08c0,2.52,0.33,4.44,0.99,5.75c0.66,1.31,2.18,1.97,4.56,1.97c1.26,0,2.21-0.21,2.85-0.62
		l0.44,0.54c-0.73,0.62-1.9,0.93-3.5,0.93c-2.63,0-4.33-0.73-5.11-2.2c-0.78-1.47-1.17-3.61-1.17-6.45c0-0.31,0-0.64,0-1l0.36-16.13
		C297.45,97.76,297.45,97.45,297.45,97.14z"/>
	<path fill="#231F20" stroke="#A6732A" stroke-miterlimit="10" d="M335.85,90.42v21.61c0,6.43,0.63,12.87,1.9,19.3
		c-0.58,1.39-1.76,2.91-3.54,4.55c-1.78,1.65-3.37,2.78-4.78,3.4c-2.63,0-5.48-0.48-8.54-1.43c-3.07-0.95-5.69-2.2-7.88-3.74
		c1.36-4.01,4.16-8.21,8.4-12.58c-5.26-3.45-7.88-8.44-7.88-14.98c0-3.96,0.85-7.91,2.56-11.85c1.7-3.94,3.97-7.09,6.79-9.46
		c4.53,0,8.57,1.08,12.12,3.24c0.24-2.57,1.05-4.76,2.41-6.56l0.66,0.39C336.58,84.79,335.85,87.49,335.85,90.42z M334.9,112.04
		v-4.94c-1.66,3.29-4.92,7.31-9.78,12.04c-2.19,2.16-3.72,3.71-4.6,4.63c-0.88,0.93-1.97,2.33-3.29,4.21
		c-1.31,1.88-2.34,3.77-3.07,5.67c4.92,3.14,9.95,4.71,15.11,4.71c1.26-0.62,2.69-1.65,4.27-3.09c1.58-1.44,2.66-2.75,3.25-3.94
		C335.53,124.65,334.9,118.21,334.9,112.04z M316.91,95.09c-1.58,3.89-2.37,7.53-2.37,10.92c0,6.9,2.53,11.84,7.59,14.82l2.48-2.39
		c1.65-1.65,2.99-3.01,4.02-4.09c2.77-2.93,4.87-5.89,6.28-8.88V89.42c-3.31-2.11-7.2-3.22-11.68-3.32
		C320.59,88.21,318.49,91.21,316.91,95.09z"/>
	<path fill="#231F20" stroke="#A6732A" stroke-miterlimit="10" d="M351.69,117.21c-1.85-3.19-2.77-6.74-2.77-10.65
		c0-3.91,0.8-7.81,2.41-11.69c1.61-3.89,3.8-7.09,6.57-9.61c8.42,0,12.63,3.04,12.63,9.11c0,1.96-0.34,3.89-1.02,5.79
		c1.36-0.05,3.02-0.08,4.96-0.08v0.77c-0.49,0-0.95,0-1.39,0c-6.91,0-14.55,0.69-22.92,2.08c-0.15,1.34-0.22,2.6-0.22,3.78
		c0,3.6,0.83,6.88,2.48,9.84c1.65,2.96,3.99,5.03,7.01,6.21c1.8-0.77,3.63-1.89,5.48-3.36c1.85-1.47,3.36-3.02,4.53-4.67l0.66,0.46
		c-1.22,1.7-2.84,3.36-4.85,4.98c-2.02,1.62-4,2.84-5.95,3.67C356.08,122.61,353.54,120.4,351.69,117.21z M369.58,94.36
		c0-5.51-3.8-8.26-11.39-8.26c-4.14,3.76-6.77,9.06-7.88,15.9c5.3-0.93,11.44-1.54,18.4-1.85
		C369.29,98.14,369.58,96.21,369.58,94.36z"/>
	<path fill="#231F20" stroke="#A6732A" stroke-miterlimit="10" d="M394.92,123.69c-4.96,0-8.58-1.76-10.84-5.29
		c-2.26-3.52-3.4-8.25-3.4-14.16c0-7.05,1.97-13.1,5.91-18.14c1.56-0.36,3.14-0.54,4.75-0.54c5.01,0,8.64,1.53,10.88,4.59
		c2.24,3.06,3.36,7.5,3.36,13.32c0,8.08-1.97,14.64-5.91,19.68C398.1,123.51,396.52,123.69,394.92,123.69z M395.13,122.84
		c1.41,0,2.78-0.15,4.09-0.46c3.6-4.84,5.4-11.12,5.4-18.83c0-5.61-1.05-9.87-3.14-12.78c-2.09-2.91-5.55-4.36-10.37-4.36
		c-1.41,0-2.78,0.15-4.09,0.46c-3.6,4.68-5.4,10.45-5.4,17.29C381.63,116.62,386.13,122.84,395.13,122.84z"/>
	<path fill="#231F20" stroke="#A6732A" stroke-miterlimit="10" d="M442.66,97.14c0-5.45-1.73-9.11-5.18-10.96
		c-2.82,1.34-5.51,3.26-8.07,5.75c-2.56,2.5-4.64,5.24-6.24,8.22v17.37c0,3.5,2.09,5.25,6.28,5.25c0.88,0,1.85-0.13,2.92-0.39
		l0.15,0.69c-0.88,0.36-2.04,0.54-3.5,0.54c-1.46,0-2.82-0.34-4.09-1c-1.27-0.67-2.02-1.67-2.26-3.01
		c-0.24,1.34-0.99,2.34-2.23,3.01c-1.24,0.67-2.59,1-4.05,1c-1.46,0-2.63-0.18-3.5-0.54l0.15-0.69c1.07,0.26,2.04,0.39,2.92,0.39
		c4.19,0,6.28-1.75,6.28-5.25V96.6c0-6.84-2.09-10.27-6.28-10.27c-1.27,0-2.22,0.21-2.85,0.62l-0.44-0.54
		c0.73-0.62,1.9-0.93,3.5-0.93c4.67,0,7.01,3.71,7.01,11.12v2.08c1.65-3.04,3.77-5.71,6.35-8.03c2.58-2.32,5.26-4.12,8.03-5.4
		c4.04,1.9,6.06,5.94,6.06,12.12c0,0.26,0,0.49,0,0.69l-0.36,16.13c0,0.36,0,0.72,0,1.08c0,2.52,0.33,4.44,0.99,5.75
		c0.66,1.31,2.18,1.97,4.56,1.97c1.27,0,2.21-0.21,2.85-0.62l0.44,0.54c-0.73,0.62-1.9,0.93-3.5,0.93c-2.63,0-4.33-0.73-5.11-2.2
		c-0.78-1.47-1.17-3.61-1.17-6.45c0-0.31,0-0.64,0-1l0.37-16.13C442.66,97.76,442.66,97.45,442.66,97.14z"/>
</g>
<g>
	<path fill="#231F20" stroke="#A6732A" stroke-miterlimit="10" d="M342.15,189.27c0,3.09-0.54,5.39-1.61,6.91
		c-1.07,1.52-2.9,2.28-5.48,2.28c-1.31,0-2.41-0.15-3.29-0.46l0.15-0.77c1.07,0.26,2.04,0.39,2.92,0.39c2.43,0,4.09-0.67,4.97-2.01
		c0.88-1.34,1.31-3.45,1.31-6.33v-38.29c0-0.26,0.07-0.85,0.22-1.78h-0.15c-0.05,0.1-0.12,0.4-0.22,0.89
		c-0.1,0.49-0.2,0.86-0.29,1.12l-4.6,12.27l-12.63,32.04l-1.24,0.23c0.15-0.67,0.22-1.52,0.22-2.55c0-4.73-1.41-11.76-4.23-21.07
		l-2.26-7.49c-1.8-6.02-2.95-10.29-3.43-12.81l-7.74,39.14c-1.17,5.51-2.73,9.91-4.67,13.2c-2.34,3.81-5.84,5.71-10.51,5.71v-0.93
		c3.65,0,6.5-1.3,8.54-3.9c2.04-2.6,3.67-6.16,4.89-10.69l0.73-1.62l-0.15-0.08c-1.66,3.91-4.28,5.87-7.88,5.87
		c-2.39,0-4.36-0.85-5.91-2.55c-1.56-1.7-2.34-3.83-2.34-6.41c0-8.39,6.35-12.58,19.06-12.58l5.77-29.1l-2.77-0.15
		c-0.29,0-0.58,0-0.88,0c-2.53,0-4.61,0.66-6.24,1.97c-1.63,1.31-2.45,3.05-2.45,5.21c0,1.03,0.15,1.88,0.44,2.55l-0.58,0.46
		c-0.54-0.62-0.8-1.68-0.8-3.2c0-1.52,0.51-2.96,1.53-4.32c1.02-1.36,2.34-2.28,3.94-2.74c0.44-0.1,1-0.21,1.68-0.31v-0.15
		l-1.68,0.08c-4.67-0.62-8.47-2.02-11.39-4.21c-2.92-2.19-4.38-5.34-4.38-9.46l0.88-0.08c0,2.37,0.56,4.41,1.68,6.14
		c1.12,1.72,2.65,3.08,4.6,4.05c3.7,1.85,8.08,2.88,13.14,3.09l4.23,0.23v1.54c0,2.16,1.24,7.41,3.72,15.75l2.26,7.49
		c2.77,9.16,4.16,16.21,4.16,21.15v0.31l0.8-2.01c0.29-0.72,0.44-1.88,0.44-3.47c0-4.12-1.49-11.09-4.45-20.92l-2.26-7.49
		c-2.29-7.2-3.33-11.3-3.14-12.27h0.95c0,0.82,1.07,4.81,3.21,11.97l2.26,7.49c2.87,9.52,4.31,16.49,4.31,20.92v0.31l9.71-24.62
		c3.36-8.75,5.38-14.33,6.06-16.75l0.88,0.08V189.27z M289.88,183.71c-0.93,1.6-1.39,3.54-1.39,5.83c0,2.29,0.68,4.21,2.04,5.75
		c1.36,1.54,2.94,2.32,4.75,2.32c1.8,0,3.24-0.35,4.31-1.04c1.07-0.69,1.97-1.74,2.7-3.13c1.07-2.16,1.97-5.12,2.7-8.88l1.31-6.64
		C297.69,177.92,292.21,179.85,289.88,183.71z M344.05,189.27v-40.91c0-3.09,0.54-5.39,1.61-6.91c1.07-1.52,2.89-2.28,5.48-2.28
		c1.31,0,2.41,0.15,3.29,0.46l-0.15,0.77c-1.07-0.26-2.04-0.39-2.92-0.39c-2.43,0-4.09,0.67-4.96,2.01
		c-0.88,1.34-1.31,3.45-1.31,6.33v40.91c0,2.88,0.44,4.99,1.31,6.33c0.88,1.34,2.53,2.01,4.96,2.01c0.88,0,1.85-0.13,2.92-0.39
		l0.15,0.77c-0.88,0.31-1.97,0.46-3.29,0.46c-2.58,0-4.41-0.76-5.48-2.28C344.59,194.66,344.05,192.36,344.05,189.27z"/>
	<path fill="#231F20" stroke="#A6732A" stroke-miterlimit="10" d="M383.18,165.26v22.08c0,6.85,2.09,10.27,6.28,10.27
		c1.27,0,2.21-0.21,2.85-0.62l0.44,0.54c-0.73,0.62-1.9,0.93-3.5,0.93c-4.67,0-7.01-3.71-7.01-11.12v-1.7
		c-1.66,2.93-3.83,5.58-6.53,7.95c-2.7,2.37-5.24,4.06-7.63,5.09c-2.58-1.44-4.5-3.65-5.77-6.64c-1.27-2.98-1.9-6.46-1.9-10.42
		c0-3.96,0.86-7.92,2.59-11.89c1.73-3.96,4.2-7.18,7.41-9.65c4.33,0,8.3,1.08,11.9,3.24c0.24-2.57,1.05-4.76,2.41-6.56l0.66,0.39
		C383.91,159.63,383.18,162.33,383.18,165.26z M363.8,170.28c-1.58,3.76-2.37,7.5-2.37,11.23c0,3.73,0.56,7.02,1.68,9.88
		c1.12,2.86,2.82,4.93,5.11,6.21c2.24-0.93,4.78-2.69,7.63-5.29c2.85-2.6,4.98-5.34,6.39-8.22v-19.84
		c-3.6-2.21-7.47-3.32-11.61-3.32C367.66,163.41,365.38,166.53,363.8,170.28z"/>
	<path fill="#231F20" stroke="#A6732A" stroke-miterlimit="10" d="M400.12,170.98c0,1.29,0.9,2.6,2.7,3.94
		c1.8,1.34,3.78,2.48,5.95,3.43c2.17,0.95,4.15,2.14,5.95,3.55c1.8,1.42,2.7,2.87,2.7,4.36c0,2.37-0.97,4.68-2.92,6.95
		c-1.95,2.27-4.19,4.09-6.72,5.48c-3.65,0-7.16-1.08-10.51-3.24l0.44-0.69c3.55,2.06,6.86,3.09,9.93,3.09
		c2.34-1.29,4.39-2.98,6.17-5.09c1.78-2.11,2.67-4.27,2.67-6.48c0-1.29-0.9-2.6-2.7-3.94c-1.8-1.34-3.79-2.48-5.95-3.44
		c-2.17-0.95-4.15-2.13-5.95-3.55c-1.8-1.41-2.7-3.01-2.7-4.79c0-1.78,0.91-3.71,2.74-5.79c1.83-2.08,3.76-3.64,5.8-4.67
		c3.45,0,6.67,0.9,9.64,2.7l-0.44,0.69c-2.92-1.7-5.91-2.55-8.98-2.55c-1.95,1.03-3.74,2.51-5.37,4.44
		C400.93,167.31,400.12,169.17,400.12,170.98z"/>
	<path fill="#231F20" stroke="#A6732A" stroke-miterlimit="10" d="M423.85,162.1v-0.85h7.23l0.22-8.88h0.95l-0.22,8.88h11.75v0.85
		h-11.75l-0.44,23.78c0,0.15,0,0.31,0,0.46c0,5.76,1.73,9.57,5.18,11.42c3.02-1.49,5.6-3.47,7.74-5.94l0.58,0.54
		c-2.09,2.52-4.89,4.63-8.4,6.33c-4.04-1.9-6.06-5.94-6.06-12.12c0-0.26,0-0.49,0-0.69l0.44-23.78H423.85z"/>
	<path fill="#231F20" stroke="#A6732A" stroke-miterlimit="10" d="M454,192.05c-1.85-3.19-2.77-6.74-2.77-10.65
		c0-3.91,0.8-7.81,2.41-11.69c1.61-3.89,3.8-7.09,6.57-9.61c8.42,0,12.63,3.04,12.63,9.11c0,1.96-0.34,3.89-1.02,5.79
		c1.36-0.05,3.02-0.08,4.97-0.08v0.77c-0.49,0-0.95,0-1.39,0c-6.91,0-14.55,0.69-22.92,2.08c-0.15,1.34-0.22,2.6-0.22,3.78
		c0,3.6,0.83,6.88,2.48,9.84c1.65,2.96,3.99,5.03,7.01,6.21c1.8-0.77,3.63-1.89,5.48-3.36c1.85-1.47,3.36-3.02,4.53-4.67l0.66,0.46
		c-1.22,1.7-2.84,3.36-4.85,4.98c-2.02,1.62-4,2.84-5.95,3.67C458.38,197.45,455.85,195.24,454,192.05z M471.89,169.2
		c0-5.51-3.8-8.26-11.39-8.26c-4.14,3.76-6.77,9.06-7.88,15.9c5.3-0.93,11.44-1.54,18.4-1.85
		C471.59,172.98,471.89,171.05,471.89,169.2z"/>
	<path fill="#231F20" stroke="#A6732A" stroke-miterlimit="10" d="M490.21,192.36c0,3.5,2.09,5.25,6.28,5.25
		c0.88,0,1.85-0.13,2.92-0.39l0.15,0.69c-0.88,0.36-2.04,0.54-3.5,0.54c-1.46,0-2.82-0.34-4.09-1c-1.27-0.67-2.02-1.67-2.26-3.01
		c-0.24,1.34-0.99,2.34-2.23,3.01c-1.24,0.67-2.59,1-4.05,1c-1.46,0-2.63-0.18-3.5-0.54l0.15-0.69c1.07,0.26,2.04,0.39,2.92,0.39
		c4.19,0,6.28-1.75,6.28-5.25v-20.92c0-6.84-2.09-10.27-6.28-10.27c-1.27,0-2.22,0.21-2.85,0.62l-0.44-0.54
		c0.73-0.62,1.9-0.93,3.5-0.93c4.67,0,7.01,3.71,7.01,11.12v1.85c2.68-6.69,6.55-11.09,11.61-13.2c1.75,2.11,2.63,5.28,2.63,9.49
		c0,0.26,0,0.49,0,0.69h-0.95c0-0.26,0-0.51,0-0.77c0-3.65-0.68-6.43-2.04-8.34c-2.63,1.29-4.76,3.05-6.39,5.29
		c-1.63,2.24-3.25,5.13-4.85,8.68V192.36z"/>
	<path fill="#231F20" stroke="#A6732A" stroke-miterlimit="10" d="M513.35,149.59c-0.97,0-1.46-0.58-1.46-1.74
		c0-1.16,0.53-1.74,1.61-1.74c1.07,0,1.61,0.75,1.61,2.24c0,3.96-1.75,7.69-5.26,11.19l-0.58-0.62c2.82-3.09,4.43-6.25,4.82-9.49
		C513.89,149.54,513.65,149.59,513.35,149.59z"/>
	<path fill="#231F20" stroke="#A6732A" stroke-miterlimit="10" d="M527.66,170.98c0,1.29,0.9,2.6,2.7,3.94
		c1.8,1.34,3.78,2.48,5.95,3.43c2.17,0.95,4.15,2.14,5.95,3.55c1.8,1.42,2.7,2.87,2.7,4.36c0,2.37-0.97,4.68-2.92,6.95
		c-1.95,2.27-4.19,4.09-6.72,5.48c-3.65,0-7.16-1.08-10.51-3.24l0.44-0.69c3.55,2.06,6.86,3.09,9.93,3.09
		c2.34-1.29,4.39-2.98,6.17-5.09c1.78-2.11,2.67-4.27,2.67-6.48c0-1.29-0.9-2.6-2.7-3.94c-1.8-1.34-3.79-2.48-5.95-3.44
		c-2.17-0.95-4.15-2.13-5.95-3.55c-1.8-1.41-2.7-3.01-2.7-4.79c0-1.78,0.91-3.71,2.74-5.79c1.83-2.08,3.76-3.64,5.8-4.67
		c3.45,0,6.67,0.9,9.64,2.7l-0.44,0.69c-2.92-1.7-5.91-2.55-8.98-2.55c-1.95,1.03-3.74,2.51-5.37,4.44
		C528.48,167.31,527.66,169.17,527.66,170.98z"/>
</g>
<g>
	<path fill="#231F20" stroke="#A6732A" stroke-miterlimit="10" d="M366.45,241.31c0-1.7-0.8-3.15-2.41-4.37
		c-1.61-1.21-4.65-2.7-9.12-4.46c-4.48-1.76-8.12-3.58-10.93-5.46c-2.81-1.88-4.22-4.14-4.22-6.78c0-2.64,1.41-5.61,4.22-8.92
		c2.81-3.31,5.54-5.66,8.18-7.05c5.39,0,10.5,1.43,15.32,4.28l-0.52,0.91c-4.82-2.73-9.64-4.1-14.46-4.1l-1.21,0.73
		c-2.53,1.7-4.88,3.93-7.06,6.69c-2.18,2.76-3.27,5.28-3.27,7.55c0,2.28,1.42,4.32,4.26,6.14c2.84,1.82,6.4,3.58,10.67,5.28
		c4.27,1.7,7.3,3.22,9.08,4.55c1.78,1.33,2.67,3,2.67,5.01c0,1.15-0.32,2.31-0.95,3.46c0.17,0.67,0.26,1.27,0.26,1.82
		c0,3.22-1.36,6.93-4.09,11.15c-2.73,4.22-5.5,7.02-8.31,8.42c-12.28,0-18.42-3.64-18.42-10.92c0-2.37,0.62-4.32,1.85-5.87
		c1.23-1.55,2.84-2.32,4.82-2.32c1.98,0,3.54,0.62,4.69,1.87c1.15,1.24,1.72,2.87,1.72,4.87c0,0.73-0.14,1.46-0.43,2.18l-0.95-0.36
		c0.17-0.61,0.26-1.21,0.26-1.82c0-1.7-0.47-3.06-1.42-4.1c-0.95-1.03-2.25-1.55-3.92-1.55c-1.67,0-2.98,0.67-3.96,2
		c-0.98,1.34-1.46,3-1.46,5.01c0,2,0.47,3.69,1.42,5.05c0.95,1.37,2.31,2.38,4.09,3.05c3.21,1.21,7,1.82,11.36,1.82
		c2.81-1.46,5.44-4.14,7.88-8.05c2.44-3.91,3.66-7.24,3.66-9.97s-1.41-4.97-4.22-6.74c-2.81-1.76-6.37-3.49-10.67-5.19
		c-4.3-1.7-7.29-3.22-8.95-4.55c-1.67-1.33-2.78-2.67-3.36-4l0.86-0.64c0.86,1.64,1.98,2.97,3.36,4c1.38,1.03,3.87,2.28,7.49,3.73
		c3.62,1.46,6.9,2.97,9.86,4.55c2.95,1.58,4.95,3.31,5.98,5.19C366.34,242.74,366.45,242.04,366.45,241.31z"/>
	<path fill="#231F20" stroke="#A6732A" stroke-miterlimit="10" d="M375.81,229.45v-0.85h7.23l0.22-8.88h0.95l-0.22,8.88h11.76v0.85
		h-11.76l-0.44,23.78c0,0.15,0,0.31,0,0.46c0,5.76,1.73,9.57,5.18,11.42c3.02-1.49,5.6-3.47,7.74-5.94l0.59,0.54
		c-2.1,2.52-4.89,4.63-8.4,6.33c-4.04-1.9-6.06-5.94-6.06-12.12c0-0.26,0-0.49,0-0.69l0.44-23.78H375.81z"/>
	<path fill="#231F20" stroke="#A6732A" stroke-miterlimit="10" d="M417.5,265.89c-4.96,0-8.58-1.76-10.84-5.29
		c-2.26-3.52-3.4-8.25-3.4-14.16c0-7.05,1.97-13.1,5.91-18.14c1.56-0.36,3.14-0.54,4.75-0.54c5.01,0,8.64,1.53,10.88,4.59
		c2.24,3.06,3.36,7.5,3.36,13.32c0,8.08-1.97,14.64-5.91,19.68C420.69,265.71,419.11,265.89,417.5,265.89z M417.72,265.04
		c1.41,0,2.78-0.15,4.09-0.46c3.6-4.84,5.4-11.12,5.4-18.83c0-5.61-1.05-9.87-3.14-12.78c-2.09-2.91-5.55-4.36-10.37-4.36
		c-1.41,0-2.78,0.15-4.09,0.46c-3.6,4.68-5.4,10.45-5.4,17.29C404.21,258.81,408.71,265.04,417.72,265.04z"/>
	<path fill="#231F20" stroke="#A6732A" stroke-miterlimit="10" d="M445.75,259.71c0,3.5,2.09,5.25,6.28,5.25
		c0.88,0,1.85-0.13,2.92-0.39l0.15,0.69c-0.88,0.36-2.04,0.54-3.5,0.54c-1.46,0-2.82-0.34-4.09-1c-1.27-0.67-2.02-1.67-2.26-3.01
		c-0.24,1.34-0.99,2.34-2.23,3.01c-1.24,0.67-2.59,1-4.05,1c-1.46,0-2.63-0.18-3.5-0.54l0.15-0.69c1.07,0.26,2.04,0.39,2.92,0.39
		c4.19,0,6.28-1.75,6.28-5.25v-20.92c0-6.84-2.09-10.27-6.28-10.27c-1.27,0-2.22,0.21-2.85,0.62l-0.44-0.54
		c0.73-0.62,1.9-0.93,3.5-0.93c4.67,0,7.01,3.71,7.01,11.12v1.85c2.68-6.69,6.55-11.09,11.61-13.2c1.75,2.11,2.63,5.28,2.63,9.49
		c0,0.26,0,0.49,0,0.69h-0.95c0-0.26,0-0.51,0-0.77c0-3.65-0.68-6.43-2.04-8.34c-2.63,1.29-4.76,3.05-6.39,5.29
		c-1.63,2.24-3.25,5.13-4.85,8.68V259.71z"/>
	<path fill="#231F20" stroke="#A6732A" stroke-miterlimit="10" d="M469.26,259.4c-1.85-3.19-2.77-6.74-2.77-10.65
		c0-3.91,0.8-7.81,2.41-11.69c1.61-3.89,3.8-7.09,6.57-9.61c8.42,0,12.63,3.04,12.63,9.11c0,1.96-0.34,3.89-1.02,5.79
		c1.36-0.05,3.02-0.08,4.97-0.08v0.77c-0.49,0-0.95,0-1.39,0c-6.91,0-14.55,0.69-22.92,2.08c-0.15,1.34-0.22,2.6-0.22,3.78
		c0,3.6,0.83,6.88,2.48,9.84c1.65,2.96,3.99,5.03,7.01,6.21c1.8-0.77,3.63-1.89,5.48-3.36c1.85-1.47,3.36-3.02,4.53-4.67l0.66,0.46
		c-1.22,1.7-2.84,3.36-4.85,4.98c-2.02,1.62-4,2.84-5.95,3.67C473.64,264.81,471.11,262.59,469.26,259.4z M487.15,236.55
		c0-5.51-3.8-8.26-11.39-8.26c-4.14,3.76-6.77,9.06-7.88,15.9c5.3-0.93,11.44-1.54,18.4-1.85
		C486.86,240.34,487.15,238.41,487.15,236.55z"/>
	<path fill="#231F20" stroke="#A6732A" stroke-miterlimit="10" d="M503.87,228.6h11.75v0.85h-11.75l0.58,39.29c0,0.15,0,0.31,0,0.46
		c0,6.23-1.97,10.32-5.91,12.27c-3.02,0-5.86-0.85-8.54-2.55l0.37-0.69c2.77,1.59,5.43,2.39,7.96,2.39
		c3.46-1.85,5.18-5.66,5.18-11.43c0-0.15,0-0.31,0-0.46l-0.58-39.29h-7.23v-0.85h7.23c0-3.65,0.51-7.19,1.53-10.61
		c1.02-3.42,2.6-6.08,4.75-7.99c3.45,0,6.67,0.9,9.64,2.7l-0.44,0.69c-2.92-1.7-5.91-2.55-8.98-2.55
		C505.71,214.4,503.87,220.32,503.87,228.6z"/>
	<path fill="#231F20" stroke="#A6732A" stroke-miterlimit="10" d="M528.47,259.71c0,3.5,2.09,5.25,6.28,5.25
		c0.88,0,1.85-0.13,2.92-0.39l0.15,0.69c-0.88,0.36-2.04,0.54-3.5,0.54c-1.46,0-2.82-0.34-4.09-1c-1.27-0.67-2.02-1.67-2.26-3.01
		c-0.24,1.34-0.99,2.34-2.23,3.01c-1.24,0.67-2.59,1-4.05,1c-1.46,0-2.63-0.18-3.5-0.54l0.15-0.69c1.07,0.26,2.04,0.39,2.92,0.39
		c4.19,0,6.28-1.75,6.28-5.25v-20.92c0-6.84-2.09-10.27-6.28-10.27c-1.27,0-2.22,0.21-2.85,0.62l-0.44-0.54
		c0.73-0.62,1.9-0.93,3.5-0.93c4.67,0,7.01,3.71,7.01,11.12v1.85c2.68-6.69,6.55-11.09,11.61-13.2c1.75,2.11,2.63,5.28,2.63,9.49
		c0,0.26,0,0.49,0,0.69h-0.95c0-0.26,0-0.51,0-0.77c0-3.65-0.68-6.43-2.04-8.34c-2.63,1.29-4.76,3.05-6.39,5.29
		c-1.63,2.24-3.25,5.13-4.85,8.68V259.71z"/>
	<path fill="#231F20" stroke="#A6732A" stroke-miterlimit="10" d="M563.51,265.89c-4.96,0-8.58-1.76-10.84-5.29
		c-2.26-3.52-3.4-8.25-3.4-14.16c0-7.05,1.97-13.1,5.91-18.14c1.56-0.36,3.14-0.54,4.75-0.54c5.01,0,8.64,1.53,10.88,4.59
		c2.24,3.06,3.36,7.5,3.36,13.32c0,8.08-1.97,14.64-5.91,19.68C566.7,265.71,565.12,265.89,563.51,265.89z M563.73,265.04
		c1.41,0,2.78-0.15,4.09-0.46c3.6-4.84,5.4-11.12,5.4-18.83c0-5.61-1.05-9.87-3.14-12.78c-2.09-2.91-5.55-4.36-10.37-4.36
		c-1.41,0-2.78,0.15-4.09,0.46c-3.6,4.68-5.4,10.45-5.4,17.29C550.22,258.81,554.73,265.04,563.73,265.04z"/>
	<path fill="#231F20" stroke="#A6732A" stroke-miterlimit="10" d="M611.26,239.33c0-5.45-1.73-9.11-5.18-10.96
		c-2.82,1.34-5.51,3.26-8.07,5.75c-2.56,2.5-4.64,5.24-6.24,8.22v17.37c0,3.5,2.09,5.25,6.28,5.25c0.88,0,1.85-0.13,2.92-0.39
		l0.15,0.69c-0.88,0.36-2.04,0.54-3.5,0.54c-1.46,0-2.82-0.34-4.09-1c-1.27-0.67-2.02-1.67-2.26-3.01
		c-0.24,1.34-0.99,2.34-2.23,3.01c-1.24,0.67-2.59,1-4.05,1c-1.46,0-2.63-0.18-3.5-0.54l0.15-0.69c1.07,0.26,2.04,0.39,2.92,0.39
		c4.19,0,6.28-1.75,6.28-5.25v-20.92c0-6.84-2.09-10.27-6.28-10.27c-1.27,0-2.22,0.21-2.85,0.62l-0.44-0.54
		c0.73-0.62,1.9-0.93,3.5-0.93c4.67,0,7.01,3.71,7.01,11.12v2.08c1.65-3.04,3.77-5.71,6.35-8.03c2.58-2.32,5.26-4.12,8.03-5.4
		c4.04,1.9,6.06,5.94,6.06,12.12c0,0.26,0,0.49,0,0.69l-0.36,16.13c0,0.36,0,0.72,0,1.08c0,2.52,0.33,4.44,0.99,5.75
		c0.66,1.31,2.18,1.97,4.56,1.97c1.27,0,2.21-0.21,2.85-0.62l0.44,0.54c-0.73,0.62-1.9,0.93-3.5,0.93c-2.63,0-4.33-0.73-5.11-2.2
		c-0.78-1.47-1.17-3.61-1.17-6.45c0-0.31,0-0.64,0-1l0.37-16.13C611.26,239.95,611.26,239.64,611.26,239.33z"/>
	<path fill="#231F20" stroke="#A6732A" stroke-miterlimit="10" d="M623.16,229.45v-0.85h7.23l0.22-8.88h0.95l-0.22,8.88h11.75v0.85
		h-11.75l-0.44,23.78c0,0.15,0,0.31,0,0.46c0,5.76,1.73,9.57,5.18,11.42c3.02-1.49,5.6-3.47,7.74-5.94l0.58,0.54
		c-2.09,2.52-4.89,4.63-8.4,6.33c-4.04-1.9-6.06-5.94-6.06-12.12c0-0.26,0-0.49,0-0.69l0.44-23.78H623.16z"/>
</g>
<g>
</g>
<g>
</g>
<g>
</g>
<g>
</g>
<g>
</g>
<g>
</g>
<g>
</g>
<g>
</g>
<g>
</g>
<g>
</g>
<g>
</g>
<g>
</g>
<g>
</g>
<g>
</g>
<g>
</g>
</svg>
